<svg xmlns="http://www.w3.org/2000/svg" viewBox="0 0 286.49 451.1"><g id="Layer_2" data-name="Layer 2"><g id="Layer_1-2" data-name="Layer 1"><path d="M124.4,277.4c-5.12,0-9.73.05-14.35,0q-48.24-.6-96.48-1.25C5.94,276,.17,272.19,0,265.76a20.92,20.92,0,0,1,3.84-11.83c23.66-33.05,47.63-65.87,71.5-98.76Q129.2,81,183,6.74C186.44,2,190.67-.9,196.55.25,202,1.33,206.76,4.17,208,10.07a19.09,19.09,0,0,1-.68,9.23q-20.56,65.43-41.41,130.78c-2.36,7.43-4.68,14.88-7.33,23.33h6.17q53,.06,106,.15a24.36,24.36,0,0,1,8.33,1.09c7.92,3,9.83,12.31,4.23,20-10.59,14.54-21.28,29-31.91,43.52q-75.51,102.95-151,205.89C95,451.4,89.06,452.92,81.83,449c-6.49-3.52-8.53-9.07-6-17q14.08-44.73,28.25-89.43,9.48-30,18.92-59.94C123.41,281.23,123.75,279.79,124.4,277.4Z"/></g></g></svg>