<?xml version="1.0" encoding="UTF-8" standalone="no"?>
<svg
   xmlns:dc="http://purl.org/dc/elements/1.1/"
   xmlns:cc="http://creativecommons.org/ns#"
   xmlns:rdf="http://www.w3.org/1999/02/22-rdf-syntax-ns#"
   xmlns:svg="http://www.w3.org/2000/svg"
   xmlns="http://www.w3.org/2000/svg"
   xmlns:sodipodi="http://sodipodi.sourceforge.net/DTD/sodipodi-0.dtd"
   xmlns:inkscape="http://www.inkscape.org/namespaces/inkscape"
   version="1.1"
   id="svg2"
   xml:space="preserve"
   width="1000"
   height="666.66669"
   viewBox="0 0 1000 666.66669"
   sodipodi:docname="support.svg"
   inkscape:version="1.0.1 (3bc2e813f5, 2020-09-07)"><metadata
     id="metadata8"><rdf:RDF><cc:Work
         rdf:about=""><dc:format>image/svg+xml</dc:format><dc:type
           rdf:resource="http://purl.org/dc/dcmitype/StillImage" /><dc:title></dc:title></cc:Work></rdf:RDF></metadata><defs
     id="defs6"><clipPath
       clipPathUnits="userSpaceOnUse"
       id="clipPath18"><path
         d="M 0,500 H 750 V 0 H 0 Z"
         id="path16" /></clipPath><clipPath
       clipPathUnits="userSpaceOnUse"
       id="clipPath82"><path
         d="M 0,500 H 750 V 0 H 0 Z"
         id="path80" /></clipPath><clipPath
       clipPathUnits="userSpaceOnUse"
       id="clipPath94"><path
         d="M 0,500 H 750 V 0 H 0 Z"
         id="path92" /></clipPath><clipPath
       clipPathUnits="userSpaceOnUse"
       id="clipPath150"><path
         d="M 0,500 H 750 V 0 H 0 Z"
         id="path148" /></clipPath><clipPath
       clipPathUnits="userSpaceOnUse"
       id="clipPath166"><path
         d="M 0,500 H 750 V 0 H 0 Z"
         id="path164" /></clipPath><clipPath
       clipPathUnits="userSpaceOnUse"
       id="clipPath216"><path
         d="M 0,500 H 750 V 0 H 0 Z"
         id="path214" /></clipPath><clipPath
       clipPathUnits="userSpaceOnUse"
       id="clipPath324"><path
         d="m 420.004,329.722 h 21.242 v -21.241 h -21.242 z"
         id="path322" /></clipPath><clipPath
       clipPathUnits="userSpaceOnUse"
       id="clipPath488"><path
         d="m 367.371,252.25 h 25.61 v -33.883 h -25.61 z"
         id="path486" /></clipPath><clipPath
       clipPathUnits="userSpaceOnUse"
       id="clipPath508"><path
         d="m 393.447,248.457 h 28.752 v -29.092 h -28.752 z"
         id="path506" /></clipPath><clipPath
       clipPathUnits="userSpaceOnUse"
       id="clipPath564"><path
         d="M 353.616,120.647 H 415.02 V 99.1486 h -61.404 z"
         id="path562" /></clipPath></defs><sodipodi:namedview
     pagecolor="#ffffff"
     bordercolor="#666666"
     borderopacity="1"
     objecttolerance="10"
     gridtolerance="10"
     guidetolerance="10"
     inkscape:pageopacity="0"
     inkscape:pageshadow="2"
     inkscape:window-width="1366"
     inkscape:window-height="698"
     id="namedview4"
     showgrid="false"
     inkscape:zoom="0.41024999"
     inkscape:cx="162.55026"
     inkscape:cy="357.12546"
     inkscape:window-x="0"
     inkscape:window-y="0"
     inkscape:window-maximized="1"
     inkscape:current-layer="g10" /><g
     id="g10"
     inkscape:groupmode="layer"
     inkscape:label="2992828"
     transform="matrix(1.3333333,0,0,-1.3333333,0,666.66667)"><g
       id="g12"><g
         id="g14"
         clip-path="url(#clipPath18)"><g
           id="g20"
           transform="translate(183.7345,103.2194)"><path
             d="m 0,0 c 10.848,7.573 14.499,16.902 15.733,30.074 1.234,13.172 -3.591,26.79 -12.843,36.246 -7.713,7.884 -18.328,13.062 -24.072,22.477 -6.122,10.034 -5.911,23.712 -14.413,31.829 -5.841,5.577 -14.382,7.068 -21.476,10.926 -5.79,3.148 -10.558,7.847 -15.856,11.766 -5.299,3.92 -11.586,7.174 -18.158,6.68 -9.913,-0.744 -17.627,-10.479 -18.098,-20.409 -0.471,-9.93 5.071,-19.428 12.65,-25.86 5.497,-4.666 12.265,-8.24 15.867,-14.485 6.765,-11.732 -0.303,-28.034 6.96,-39.465 5.304,-8.346 17.327,-12.342 18.997,-22.091 0.613,-3.584 -0.4,-7.24 -0.373,-10.876 0.086,-11.375 10.72,-20.539 21.914,-22.556 C -21.974,-7.761 -10.549,-4.253 0,0"
             style="fill:#f5f5f5;fill-opacity:1;fill-rule:nonzero;stroke:none"
             id="path22" /></g><g
           id="g24"
           transform="translate(114.129,213.2458)"><path
             d="m 0,0 c -0.031,-0.035 0.381,-0.492 1.193,-1.33 0.921,-0.926 2.115,-2.126 3.598,-3.617 1.592,-1.538 3.507,-3.45 5.594,-5.804 2.105,-2.333 4.623,-4.879 7.088,-7.976 1.268,-1.521 2.594,-3.111 3.973,-4.765 1.373,-1.664 2.664,-3.504 4.078,-5.347 2.88,-3.651 5.589,-7.816 8.525,-12.137 5.626,-8.8 11.278,-18.822 16.272,-29.799 4.894,-11.027 8.637,-21.91 11.482,-31.961 1.281,-5.065 2.597,-9.857 3.415,-14.435 0.44,-2.281 0.958,-4.469 1.29,-6.6 0.322,-2.129 0.631,-4.176 0.927,-6.135 0.679,-3.899 0.911,-7.472 1.257,-10.596 0.374,-3.122 0.532,-5.824 0.626,-8.035 0.13,-2.1 0.235,-3.788 0.315,-5.091 0.088,-1.164 0.156,-1.775 0.203,-1.775 0.047,0 0.07,0.613 0.071,1.78 -0.015,1.307 -0.035,3.002 -0.06,5.109 -0.014,2.22 -0.094,4.936 -0.397,8.076 -0.276,3.14 -0.442,6.736 -1.062,10.661 -0.27,1.972 -0.552,4.033 -0.845,6.177 -0.306,2.147 -0.801,4.351 -1.219,6.649 -0.775,4.612 -2.056,9.44 -3.312,14.544 -2.795,10.128 -6.526,21.094 -11.451,32.189 -5.025,11.046 -10.747,21.114 -16.463,29.928 -2.982,4.327 -5.742,8.49 -8.676,12.132 -1.441,1.838 -2.759,3.671 -4.161,5.325 -1.409,1.644 -2.763,3.223 -4.059,4.733 -2.523,3.071 -5.101,5.582 -7.267,7.874 -2.147,2.312 -4.123,4.174 -5.776,5.66 -1.558,1.417 -2.813,2.557 -3.78,3.437 C 0.505,-0.354 0.032,0.035 0,0"
             style="fill:#e0e0e0;fill-opacity:1;fill-rule:nonzero;stroke:none"
             id="path26" /></g><g
           id="g28"
           transform="translate(670.0631,297.7814)"><path
             d="m 0,0 c 0,0 -9.54,6.308 -21.169,-16.51 -11.63,-22.819 -16.035,-35.978 -16.035,-35.978 0,0 -3.074,-4.781 -6.359,-1.656 -3.284,3.125 -7.781,11.99 -13.364,10.394 -5.789,-1.655 -7.695,-8.117 -6.592,-17.61 1.105,-9.494 2.76,-30.384 2.903,-32.273 0.139,-1.855 -0.923,-4.588 -3.501,-2.818 -2.578,1.771 -17.41,18.289 -24.827,10.782 -7.417,-7.507 0.004,-33.451 0.76,-36.303 0.757,-2.852 0.2,-4.07 -1.155,-4.776 -1.354,-0.705 -5.816,5.317 -10.227,9.842 -4.412,4.526 -10.32,8.999 -14.236,4.31 -3.916,-4.691 -5.169,-24.156 13.357,-55.775 l 9.543,-14.089 17.066,0.947 c 36.398,4.252 51.185,16.975 52.57,22.926 1.386,5.951 -5.744,7.973 -12.012,8.769 -6.27,0.796 -13.765,0.732 -14.017,2.238 -0.253,1.507 0.384,2.686 3.116,3.799 2.733,1.113 27.913,10.813 29.44,21.254 1.527,10.443 -20.593,12.336 -23.559,13.328 -2.966,0.992 -1.424,3.486 0.142,4.491 1.593,1.024 19.266,12.283 27.51,17.12 8.245,4.836 12.254,10.249 10.089,15.867 -2.087,5.418 -11.873,3.67 -16.345,4.41 -4.472,0.739 -2.507,6.072 -2.507,6.072 0,0 7.852,11.443 19.065,34.468 11.213,23.026 0.142,26.885 0.142,26.885"
             style="fill:#ebebeb;fill-opacity:1;fill-rule:nonzero;stroke:none"
             id="path30" /></g><g
           id="g32"
           transform="translate(659.6129,277.3644)"><path
             d="m 0,0 c 0,0 -0.063,-0.171 -0.211,-0.494 -0.159,-0.341 -0.381,-0.815 -0.666,-1.427 -0.606,-1.27 -1.484,-3.108 -2.61,-5.466 -2.271,-4.744 -5.607,-11.585 -9.761,-20.022 -8.301,-16.879 -19.964,-40.096 -32.927,-65.698 -12.968,-25.61 -24.683,-48.802 -33.069,-65.636 -4.177,-8.407 -7.561,-15.216 -9.91,-19.946 -1.164,-2.338 -2.072,-4.161 -2.699,-5.421 -0.306,-0.601 -0.543,-1.068 -0.713,-1.403 -0.164,-0.316 -0.26,-0.471 -0.26,-0.471 0,0 0.063,0.171 0.211,0.494 0.159,0.34 0.381,0.815 0.667,1.427 0.605,1.27 1.483,3.107 2.608,5.465 2.272,4.743 5.607,11.584 9.761,20.021 8.301,16.878 19.966,40.099 32.933,65.708 12.962,25.602 24.677,48.791 33.063,65.626 4.178,8.407 7.562,15.217 9.911,19.946 1.164,2.339 2.072,4.162 2.699,5.422 0.306,0.603 0.543,1.069 0.714,1.404 C -0.096,-0.156 0,0 0,0"
             style="fill:#e0e0e0;fill-opacity:1;fill-rule:nonzero;stroke:none"
             id="path34" /></g><g
           id="g36"
           transform="translate(618.9293,241.3766)"><path
             d="M 0,0 C 0.035,0.01 0.187,-0.401 0.43,-1.154 0.676,-1.906 1,-3.003 1.389,-4.363 c 0.77,-2.721 1.739,-6.505 2.732,-10.701 0.965,-4.141 1.837,-7.885 2.505,-10.75 0.309,-1.29 0.569,-2.376 0.778,-3.251 0.188,-0.767 0.275,-1.197 0.241,-1.207 -0.036,-0.011 -0.19,0.399 -0.439,1.151 -0.244,0.753 -0.569,1.85 -0.942,3.215 -0.744,2.728 -1.663,6.525 -2.657,10.719 -0.994,4.132 -1.892,7.87 -2.58,10.729 C 0.712,-3.17 0.445,-2.084 0.231,-1.209 0.049,-0.44 -0.035,-0.01 0,0"
             style="fill:#e0e0e0;fill-opacity:1;fill-rule:nonzero;stroke:none"
             id="path38" /></g><g
           id="g40"
           transform="translate(628.1364,210.8015)"><path
             d="m 0,0 c -0.04,0.141 7.675,2.481 17.229,5.229 9.559,2.747 17.337,4.86 17.377,4.719 C 34.646,9.809 26.934,7.468 17.376,4.721 7.82,1.974 0.04,-0.14 0,0"
             style="fill:#e0e0e0;fill-opacity:1;fill-rule:nonzero;stroke:none"
             id="path42" /></g><g
           id="g44"
           transform="translate(606.4528,172.3786)"><path
             d="M 0,0 C 0.002,0.036 0.449,0.055 1.256,0.058 2.171,0.055 3.314,0.051 4.671,0.046 7.554,0.04 11.534,0.048 15.927,0.219 c 4.393,0.161 8.365,0.445 11.238,0.674 1.354,0.105 2.492,0.195 3.404,0.267 0.805,0.059 1.252,0.074 1.257,0.038 C 31.83,1.162 31.391,1.077 30.593,0.955 29.794,0.834 28.636,0.68 27.201,0.521 24.332,0.196 20.354,-0.147 15.946,-0.31 11.542,-0.48 7.549,-0.43 4.664,-0.328 3.221,-0.271 2.054,-0.213 1.249,-0.148 0.443,-0.088 -0.001,-0.037 0,0"
             style="fill:#e0e0e0;fill-opacity:1;fill-rule:nonzero;stroke:none"
             id="path46" /></g><g
           id="g48"
           transform="translate(592.0387,198.2009)"><path
             d="m 0,0 c 0.031,0.018 0.268,-0.322 0.666,-0.952 0.448,-0.734 0.998,-1.633 1.647,-2.694 1.37,-2.288 3.231,-5.464 5.258,-8.99 2.029,-3.526 3.839,-6.733 5.126,-9.067 0.592,-1.095 1.093,-2.023 1.501,-2.778 0.344,-0.662 0.52,-1.037 0.488,-1.055 -0.032,-0.018 -0.267,0.322 -0.666,0.952 -0.448,0.732 -0.998,1.633 -1.647,2.694 -1.37,2.287 -3.231,5.464 -5.26,8.991 -2.027,3.525 -3.837,6.731 -5.125,9.066 -0.591,1.095 -1.092,2.022 -1.5,2.778 C 0.144,-0.394 -0.031,-0.019 0,0"
             style="fill:#e0e0e0;fill-opacity:1;fill-rule:nonzero;stroke:none"
             id="path50" /></g><g
           id="g52"
           transform="translate(568.5865,166.7116)"><path
             d="m 0,0 c 0.032,0.019 0.329,-0.419 0.841,-1.227 0.553,-0.897 1.266,-2.055 2.123,-3.445 1.772,-2.921 4.189,-6.974 6.831,-11.467 2.643,-4.495 5.009,-8.579 6.699,-11.548 0.798,-1.423 1.463,-2.61 1.978,-3.53 0.457,-0.839 0.695,-1.312 0.663,-1.331 -0.031,-0.018 -0.329,0.42 -0.84,1.227 -0.554,0.898 -1.267,2.055 -2.123,3.445 -1.773,2.921 -4.19,6.975 -6.832,11.469 -2.642,4.493 -5.008,8.577 -6.698,11.546 -0.798,1.423 -1.463,2.61 -1.979,3.53 C 0.207,-0.491 -0.031,-0.019 0,0"
             style="fill:#e0e0e0;fill-opacity:1;fill-rule:nonzero;stroke:none"
             id="path54" /></g><g
           id="g56"
           transform="translate(587.483,135.071)"><path
             d="m 0,0 c 0,0.037 0.566,0.075 1.589,0.113 1.117,0.037 2.574,0.084 4.33,0.142 3.656,0.123 8.704,0.312 14.271,0.679 5.57,0.358 10.601,0.815 14.242,1.171 1.748,0.17 3.199,0.311 4.311,0.419 1.02,0.095 1.585,0.13 1.59,0.094 C 40.338,2.582 39.78,2.478 38.769,2.32 37.757,2.162 36.29,1.957 34.473,1.734 30.839,1.282 25.803,0.766 20.225,0.406 14.647,0.039 9.588,-0.092 5.927,-0.119 4.096,-0.128 2.614,-0.12 1.59,-0.092 0.566,-0.067 0,-0.036 0,0"
             style="fill:#e0e0e0;fill-opacity:1;fill-rule:nonzero;stroke:none"
             id="path58" /></g><g
           id="g60"
           transform="translate(464.4684,412.592)"><path
             d="m 0,0 h 68.654 c 2.989,0 5.411,-2.423 5.411,-5.412 v -45.492 c 0,-2.989 -2.422,-5.412 -5.411,-5.412 H 32.5 L 15.314,-73.501 v 17.185 H 0 c -2.217,0 -4.014,1.797 -4.014,4.013 v 48.29 C -4.014,-1.797 -2.217,0 0,0"
             style="fill:#e0e0e0;fill-opacity:1;fill-rule:nonzero;stroke:none"
             id="path62" /></g><g
           id="g64"
           transform="translate(487.2467,383.4797)"><path
             d="m 0,0 c 0,-2.231 -1.809,-4.04 -4.04,-4.04 -2.231,0 -4.04,1.809 -4.04,4.04 0,2.231 1.809,4.04 4.04,4.04 C -1.809,4.04 0,2.231 0,0"
             style="fill:#fafafa;fill-opacity:1;fill-rule:nonzero;stroke:none"
             id="path66" /></g><g
           id="g68"
           transform="translate(503.2252,383.4797)"><path
             d="m 0,0 c 0,-2.231 -1.809,-4.04 -4.04,-4.04 -2.231,0 -4.04,1.809 -4.04,4.04 0,2.231 1.809,4.04 4.04,4.04 C -1.809,4.04 0,2.231 0,0"
             style="fill:#fafafa;fill-opacity:1;fill-rule:nonzero;stroke:none"
             id="path70" /></g><g
           id="g72"
           transform="translate(519.2037,383.4797)"><path
             d="m 0,0 c 0,-2.231 -1.81,-4.04 -4.04,-4.04 -2.231,0 -4.04,1.809 -4.04,4.04 0,2.231 1.809,4.04 4.04,4.04 C -1.81,4.04 0,2.231 0,0"
             style="fill:#fafafa;fill-opacity:1;fill-rule:nonzero;stroke:none"
             id="path74" /></g></g></g><g
       id="g76"><g
         id="g78"
         clip-path="url(#clipPath82)"><g
           id="g84"
           transform="translate(100.1906,237.9079)"><path
             d="m 0,0 c -21.482,42.138 -3.033,107.37 26.704,144.151 38.521,47.646 118.089,42.677 163.577,8.159 28.256,-21.442 47.803,-54.066 79.364,-70.252 36.855,-18.9 81.138,-11.15 121.735,-2.947 40.599,8.204 84.876,15.965 121.74,-2.919 31.12,-15.942 51.529,-50.868 49.968,-85.798 -1.007,-22.564 -10.381,-44.072 -22.811,-62.929 -16.176,-24.539 -38.174,-45.757 -64.913,-57.959 -33.913,-15.476 -72.519,-15.537 -109.786,-16.399 -60.22,-1.393 -120.952,-5.562 -180.332,4.554 C 105.287,-128.719 24.172,-82.214 0,0"
             style="fill:#ebebeb;fill-opacity:1;fill-rule:nonzero;stroke:none"
             id="path86" /></g></g></g><g
       id="g88"><g
         id="g90"
         clip-path="url(#clipPath94)"><g
           id="g96"
           transform="translate(576.0377,69.1247)"><path
             d="m 0,0 c -17.177,16.701 -17.478,42.554 -13.028,65.024 0.742,3.75 0.975,7.794 3.308,10.812 2.335,3.016 6.889,4.596 10.007,2.456 2.586,-1.775 3.276,-5.232 4.404,-8.182 1.5,-3.925 4.122,-7.398 7.469,-9.89 2.198,-1.638 5.046,-2.884 7.63,-1.963 3.546,1.264 4.661,5.697 5.25,9.453 1.095,6.998 2.191,13.997 3.287,20.995 0.588,3.754 1.201,7.587 2.947,10.956 1.747,3.37 4.865,6.258 8.595,6.676 3.733,0.418 7.81,-2.358 7.965,-6.153 0.064,-1.58 -0.505,-3.115 -0.654,-4.689 -0.15,-1.574 0.295,-3.415 1.703,-4.09 1.426,-0.683 3.099,0.135 4.4,1.05 4.489,3.157 7.911,7.608 11.157,12.06 3.248,4.452 6.44,9.031 10.626,12.589 4.186,3.56 9.58,6.042 15.001,5.47 5.422,-0.571 10.606,-4.82 11.104,-10.315 0.5,-5.511 -3.46,-10.373 -7.516,-14.107 -6.015,-5.54 -12.824,-10.196 -20.141,-13.777 -1.32,-0.646 -2.749,-1.345 -3.428,-2.66 -1.223,-2.368 0.742,-5.238 3.078,-6.463 2.645,-1.387 5.726,-1.591 8.594,-2.412 2.869,-0.821 5.827,-2.628 6.483,-5.572 0.912,-4.084 -2.95,-7.581 -6.534,-9.7 -7.177,-4.241 -15.07,-7.229 -23.226,-8.795 -2.923,-0.559 -5.972,-0.971 -8.513,-2.547 -2.541,-1.578 -4.434,-4.73 -3.52,-7.59 0.914,-2.865 4.227,-4.273 7.204,-4.207 2.977,0.064 5.821,1.213 8.744,1.802 5.473,1.106 12.073,-0.335 14.649,-5.328 C 78.737,27.621 78.264,23.512 76.597,20.2 74.932,16.888 72.215,14.243 69.399,11.855 59.558,3.509 47.708,-2.571 35.073,-4.77 22.439,-6.967 11.176,-6.283 0,0"
             style="fill:#e8505b;fill-opacity:1;fill-rule:nonzero;stroke:none"
             id="path98" /></g><g
           id="g100"
           transform="translate(573.0114,52.4206)"><path
             d="m 0,0 c 2.277,8.818 5.963,19.069 11.167,29.918 5.185,10.861 11.854,22.295 19.24,34.015 1.858,2.921 3.694,5.81 5.502,8.656 1.812,2.837 3.61,5.651 5.536,8.295 3.834,5.304 7.923,10.112 11.948,14.554 4.024,4.447 8.004,8.519 11.753,12.299 3.76,3.774 7.331,7.226 10.718,10.233 6.761,6.041 12.78,10.259 17.029,12.985 2.123,1.372 3.804,2.381 4.954,3.049 0.551,0.316 0.985,0.565 1.311,0.753 0.297,0.165 0.452,0.245 0.458,0.234 0.007,-0.011 -0.137,-0.111 -0.422,-0.297 -0.317,-0.202 -0.739,-0.469 -1.275,-0.811 -1.125,-0.708 -2.781,-1.754 -4.88,-3.157 -4.197,-2.795 -10.149,-7.06 -16.848,-13.13 -3.358,-3.023 -6.9,-6.486 -10.635,-10.273 C 61.827,103.527 57.867,99.446 53.866,95 49.865,90.557 45.802,85.757 41.998,80.477 40.085,77.845 38.307,75.054 36.492,72.209 34.686,69.363 32.853,66.477 30.996,63.555 23.616,51.844 16.946,40.448 11.745,29.635 6.525,18.835 2.807,8.644 0.478,-0.126"
             style="fill:#263238;fill-opacity:1;fill-rule:nonzero;stroke:none"
             id="path102" /></g><g
           id="g104"
           transform="translate(614.6588,133.2985)"><path
             d="m 0,0 c -0.048,0.001 -0.082,0.591 -0.105,1.66 -0.029,1.069 -0.018,2.615 0.023,4.527 0.078,3.822 0.366,9.095 0.706,14.908 0.34,5.816 0.553,11.079 0.572,14.89 0.015,1.907 0.013,3.45 -0.004,4.516 C 1.183,41.567 1.2,42.16 1.248,42.163 1.297,42.166 1.371,41.58 1.464,40.515 1.563,39.449 1.643,37.903 1.689,35.992 1.797,32.167 1.662,26.88 1.321,21.059 0.971,15.322 0.654,10.134 0.411,6.17 0.313,4.378 0.232,2.868 0.167,1.656 0.104,0.591 0.049,0 0,0"
             style="fill:#263238;fill-opacity:1;fill-rule:nonzero;stroke:none"
             id="path106" /></g><g
           id="g108"
           transform="translate(664.3571,134.4528)"><path
             d="m 0,0 c -0.007,-0.048 -0.706,-0.016 -1.962,0.083 -1.255,0.091 -3.071,0.233 -5.319,0.337 -4.495,0.243 -10.717,0.362 -17.586,0.192 -6.871,-0.182 -13.082,-0.611 -17.566,-1.051 -2.244,-0.206 -4.055,-0.419 -5.308,-0.56 -1.252,-0.146 -1.948,-0.203 -1.957,-0.155 -0.007,0.049 0.676,0.198 1.92,0.428 1.244,0.223 3.05,0.514 5.295,0.784 4.482,0.569 10.711,1.078 17.602,1.262 6.889,0.169 13.132,-0.028 17.633,-0.401 C -4.996,0.751 -3.182,0.533 -1.932,0.355 -0.682,0.172 0.005,0.049 0,0"
             style="fill:#263238;fill-opacity:1;fill-rule:nonzero;stroke:none"
             id="path110" /></g><g
           id="g112"
           transform="translate(584.9166,83.1286)"><path
             d="m 0,0 c -0.023,-0.006 -0.104,0.215 -0.235,0.643 -0.147,0.507 -0.325,1.128 -0.54,1.878 -0.462,1.634 -1.07,4.016 -1.781,6.969 -1.426,5.905 -3.14,14.121 -4.909,23.215 -1.769,9.098 -3.404,17.32 -4.705,23.245 -0.642,2.882 -1.17,5.252 -1.561,7.015 -0.166,0.764 -0.303,1.393 -0.415,1.911 -0.087,0.438 -0.122,0.672 -0.098,0.679 0.023,0.005 0.103,-0.215 0.234,-0.643 0.147,-0.509 0.325,-1.128 0.541,-1.879 0.462,-1.634 1.069,-4.015 1.781,-6.968 1.425,-5.904 3.139,-14.122 4.909,-23.218 C -5.01,23.752 -3.375,15.53 -2.074,9.604 -1.432,6.723 -0.905,4.352 -0.513,2.591 -0.347,1.827 -0.211,1.195 -0.099,0.68 -0.012,0.24 0.023,0.007 0,0"
             style="fill:#263238;fill-opacity:1;fill-rule:nonzero;stroke:none"
             id="path114" /></g><g
           id="g116"
           transform="translate(652.3707,93.3395)"><path
             d="m 0,0 c 0.003,-0.023 -0.231,-0.077 -0.679,-0.158 -0.528,-0.086 -1.176,-0.192 -1.963,-0.321 -1.809,-0.277 -4.253,-0.651 -7.225,-1.105 -6.101,-0.936 -14.512,-2.323 -23.804,-3.869 -9.296,-1.548 -17.728,-2.86 -23.85,-3.668 -3.061,-0.405 -5.541,-0.709 -7.258,-0.883 -0.793,-0.075 -1.448,-0.138 -1.98,-0.189 -0.453,-0.036 -0.693,-0.041 -0.695,-0.018 -0.003,0.024 0.231,0.078 0.679,0.16 0.527,0.085 1.175,0.191 1.962,0.32 1.81,0.277 4.252,0.65 7.224,1.105 6.101,0.935 14.514,2.323 23.809,3.87 9.292,1.547 17.723,2.859 23.845,3.667 3.062,0.406 5.541,0.709 7.26,0.883 0.793,0.075 1.446,0.139 1.98,0.189 C -0.242,0.019 -0.004,0.025 0,0"
             style="fill:#263238;fill-opacity:1;fill-rule:nonzero;stroke:none"
             id="path118" /></g><g
           id="g120"
           transform="translate(114.6246,148.0085)"><path
             d="m 0,0 c 5.409,1.451 11.322,0.084 16.084,-2.862 4.763,-2.947 8.478,-7.347 11.446,-12.096 5.742,-9.188 7.714,-21.504 7.908,-32.338 C 23.417,-46.74 13.198,-37.231 8.316,-32.082 0.601,-23.942 -8.401,-4.547 0,0"
             style="fill:#e8505b;fill-opacity:1;fill-rule:nonzero;stroke:none"
             id="path122" /></g><g
           id="g124"
           transform="translate(169.3688,93.3561)"><path
             d="m 0,0 c -4.922,3.862 -7.092,10.663 -6.024,16.827 1.068,6.164 5.082,11.603 10.263,15.11 2.395,1.623 5.358,2.902 8.129,2.071 2.59,-0.779 4.382,-3.312 4.891,-5.967 C 17.77,25.385 17.187,22.634 16.288,20.083 13.204,11.337 8.613,3.438 0,0"
             style="fill:#e8505b;fill-opacity:1;fill-rule:nonzero;stroke:none"
             id="path126" /></g><g
           id="g128"
           transform="translate(180.2907,59.0681)"><path
             d="M 0,0 C -0.075,-0.036 -0.499,0.654 -1.197,1.938 -1.894,3.222 -2.868,5.098 -4,7.454 c -2.23,4.705 -5.233,11.395 -6.662,19.345 -1.422,7.962 -0.383,15.462 1.619,20.354 0.977,2.459 2.066,4.318 2.939,5.502 0.869,1.192 1.442,1.772 1.497,1.729 0.207,-0.137 -1.935,-2.648 -3.631,-7.528 -1.74,-4.83 -2.611,-12.09 -1.228,-19.848 C -8.074,19.247 -5.243,12.586 -3.218,7.809 -1.15,3.031 0.164,0.077 0,0"
             style="fill:#263238;fill-opacity:1;fill-rule:nonzero;stroke:none"
             id="path130" /></g><g
           id="g132"
           transform="translate(122.7838,133.8444)"><path
             d="m 0,0 c 0.064,0.055 0.989,-0.91 2.606,-2.703 1.621,-1.791 3.921,-4.42 6.728,-7.699 5.616,-6.557 13.225,-15.744 21.377,-26.091 8.151,-10.354 15.299,-19.905 20.356,-26.903 2.53,-3.497 4.546,-6.349 5.907,-8.343 1.363,-1.993 2.085,-3.118 2.017,-3.167 -0.068,-0.05 -0.918,0.981 -2.398,2.887 -1.597,2.085 -3.69,4.817 -6.215,8.112 -5.23,6.86 -12.478,16.319 -20.621,26.663 C 21.614,-26.907 14.118,-17.645 8.674,-10.952 6.063,-7.725 3.898,-5.051 2.246,-3.009 0.74,-1.123 -0.063,-0.055 0,0"
             style="fill:#263238;fill-opacity:1;fill-rule:nonzero;stroke:none"
             id="path134" /></g><g
           id="g136"
           transform="translate(161.2511,79.9958)"><path
             d="m 0,0 c -10.296,8.243 -24.717,11.04 -37.349,7.244 -3.215,-0.967 -6.779,-2.93 -7.104,-6.272 -0.324,-3.349 2.817,-5.968 5.83,-7.464 12.537,-6.227 28.822,-3.853 39.06,5.693"
             style="fill:#e8505b;fill-opacity:1;fill-rule:nonzero;stroke:none"
             id="path138" /></g><g
           id="g140"
           transform="translate(131.8908,81.1218)"><path
             d="m 0,0 c -0.019,0.081 0.723,0.3 2.09,0.625 0.681,0.177 1.522,0.357 2.515,0.466 0.99,0.121 2.116,0.325 3.376,0.343 2.513,0.181 5.525,0.059 8.831,-0.387 3.294,-0.516 6.874,-1.398 10.468,-2.793 3.577,-1.442 6.792,-3.247 9.548,-5.125 2.716,-1.937 4.997,-3.908 6.705,-5.761 0.907,-0.874 1.589,-1.794 2.228,-2.559 0.651,-0.758 1.139,-1.465 1.516,-2.06 0.774,-1.173 1.165,-1.839 1.096,-1.886 -0.194,-0.138 -1.91,2.45 -5.449,5.901 -1.753,1.74 -4.041,3.6 -6.727,5.441 -2.726,1.783 -5.875,3.513 -9.364,4.92 -3.506,1.36 -6.985,2.252 -10.193,2.817 C 13.421,0.437 10.481,0.646 8.012,0.576 3.069,0.48 0.047,-0.233 0,0"
             style="fill:#263238;fill-opacity:1;fill-rule:nonzero;stroke:none"
             id="path142" /></g></g></g><g
       id="g144"><g
         id="g146"
         clip-path="url(#clipPath150)"><g
           id="g152"
           transform="translate(248.3483,368.3561)"><path
             d="M 0,0 C -1.851,0.824 -2.683,2.992 -1.858,4.842 -1.035,6.693 1.133,7.525 2.984,6.701 4.834,5.877 5.667,3.709 4.843,1.858 4.019,0.008 1.851,-0.824 0,0 m 48.04,37.477 -8.387,-7.01 -4.08,1.817 -0.842,3.456 c 0,0 9.016,6.649 8.675,7.003 -0.824,0.856 -1.963,1.259 -3.096,1.422 -2.151,0.309 -4.331,-0.335 -6.075,-1.631 l -1.586,-1.179 c -2.938,-2.183 -4.456,-5.829 -3.829,-9.435 0.035,-0.199 0.06,-0.309 0.06,-0.309 L 4.011,10.946 c -3.861,1.285 -8.14,-0.545 -9.83,-4.34 -1.798,-4.038 0.017,-8.769 4.055,-10.567 4.038,-1.798 8.769,0.018 10.567,4.056 0.726,1.629 0.854,3.369 0.494,4.986 L 33.89,25.727 c 0.947,-0.911 2.247,-1.242 3.534,-1.286 2.492,-0.086 4.89,0.961 6.671,2.705 l 2.075,2.03 c 3.571,3.676 1.87,8.301 1.87,8.301"
             style="fill:#e8505b;fill-opacity:1;fill-rule:nonzero;stroke:none"
             id="path154" /></g><g
           id="g156"
           transform="translate(334.0441,358.132)"><path
             d="m 0,0 c -1.031,-0.086 -9.883,-0.828 -26.787,-2.244 l 0.098,0.05 c -4.789,-5.692 -11.938,-11.561 -21.518,-14.982 -4.77,-1.68 -10.092,-2.77 -15.728,-2.866 -5.627,-0.038 -11.554,0.735 -17.363,2.746 -5.805,1.988 -11.469,5.167 -16.441,9.49 -4.972,4.313 -9.245,9.769 -12.277,16.048 -3.04,6.269 -4.811,13.359 -4.971,20.654 -0.083,0.91 -0.026,1.823 0.027,2.738 0.045,0.916 0.092,1.833 0.138,2.753 0.002,0.924 0.232,1.827 0.344,2.744 0.14,0.915 0.28,1.831 0.42,2.75 0.189,0.909 0.451,1.805 0.674,2.71 0.25,0.899 0.425,1.823 0.739,2.705 0.322,0.88 0.645,1.763 0.968,2.646 l 0.486,1.327 c 0.16,0.443 0.397,0.855 0.592,1.284 3.014,6.648 7.438,12.512 12.744,17.156 5.302,4.653 11.483,8.083 17.935,10.104 6.453,2.037 13.156,2.644 19.53,2.047 6.383,-0.586 12.441,-2.395 17.794,-5.088 10.73,-5.409 18.606,-14.131 22.784,-23.233 0.547,-1.13 1.106,-2.236 1.479,-3.402 0.413,-1.149 0.842,-2.273 1.222,-3.395 0.549,-2.304 1.273,-4.5 1.502,-6.721 0.151,-1.101 0.362,-2.177 0.456,-3.246 0.052,-1.073 0.103,-2.127 0.153,-3.161 0.025,-0.517 0.05,-1.03 0.075,-1.537 -0.009,-0.507 -0.044,-1.01 -0.065,-1.507 -0.048,-0.995 -0.094,-1.969 -0.141,-2.924 l -0.02,0.089 C -5.661,9.614 -0.558,0.947 0,0 -0.567,0.941 -5.756,9.557 -15.408,25.582 l -0.023,0.038 0.002,0.051 c 0.042,0.95 0.084,1.919 0.127,2.908 0.019,0.494 0.052,0.993 0.058,1.498 -0.026,0.504 -0.053,1.013 -0.08,1.527 -0.054,1.027 -0.109,2.074 -0.165,3.139 -0.096,1.061 -0.31,2.13 -0.464,3.222 -0.234,2.204 -0.963,4.382 -1.513,6.667 -0.381,1.113 -0.811,2.227 -1.223,3.366 -0.373,1.156 -0.932,2.252 -1.477,3.371 -4.17,9.019 -12,17.646 -22.638,22.986 -5.308,2.66 -11.309,4.441 -17.63,5.015 -6.313,0.583 -12.948,-0.025 -19.334,-2.045 -6.383,-2.005 -12.497,-5.404 -17.742,-10.011 -5.249,-4.598 -9.625,-10.401 -12.607,-16.978 -0.194,-0.425 -0.428,-0.832 -0.586,-1.271 l -0.481,-1.313 c -0.319,-0.874 -0.639,-1.746 -0.958,-2.617 -0.311,-0.873 -0.483,-1.787 -0.731,-2.676 -0.221,-0.896 -0.481,-1.782 -0.668,-2.681 -0.139,-0.909 -0.277,-1.816 -0.416,-2.721 -0.11,-0.908 -0.34,-1.801 -0.341,-2.716 -0.046,-0.91 -0.092,-1.818 -0.138,-2.724 -0.052,-0.906 -0.109,-1.809 -0.027,-2.71 0.156,-7.22 1.904,-14.236 4.907,-20.442 2.995,-6.217 7.22,-11.623 12.139,-15.901 4.918,-4.288 10.523,-7.444 16.27,-9.424 5.751,-2.003 11.624,-2.78 17.204,-2.756 5.589,0.082 10.869,1.149 15.608,2.803 9.515,3.366 16.638,9.166 21.428,14.802 l 0.039,0.046 0.059,0.005 C -9.891,-0.724 -1.031,-0.076 0,0"
             style="fill:#263238;fill-opacity:1;fill-rule:nonzero;stroke:none"
             id="path158" /></g></g></g><g
       id="g160"><g
         id="g162"
         clip-path="url(#clipPath166)"><g
           id="g168"
           transform="translate(567.2145,47.6804)"><path
             d="m 0,0 h -378.894 c -8.045,0 -14.567,6.522 -14.567,14.567 v 240.691 c 0,8.045 6.522,14.567 14.567,14.567 H 0 c 8.045,0 14.566,-6.522 14.566,-14.567 V 14.567 C 14.566,6.521 8.045,0 0,0"
             style="fill:#455a64;fill-opacity:1;fill-rule:nonzero;stroke:none"
             id="path170" /></g><g
           id="g172"
           transform="translate(581.5299,44.027)"><path
             d="m 0,0 h -406.472 c -9.829,0 -17.798,7.969 -17.798,17.798 v 5.811 H 17.798 V 17.798 C 17.798,7.969 9.83,0 0,0"
             style="fill:#455a64;fill-opacity:1;fill-rule:nonzero;stroke:none"
             id="path174" /></g><path
           d="M 570.258,78.922 H 185.276 v 227.864 h 384.982 z"
           style="fill:#f5f5f5;fill-opacity:1;fill-rule:nonzero;stroke:none"
           id="path176" /><g
           id="g178"
           transform="translate(338.1144,67.6364)"><path
             d="M 0,0 C -0.008,0.005 0.136,0.009 0.425,0.013 0.739,0.017 1.168,0.021 1.719,0.026 2.892,0.033 4.581,0.042 6.747,0.055 11.165,0.072 17.525,0.099 25.4,0.131 41.277,0.165 63.254,0.212 87.77,0.265 l 0.46,0.001 -0.232,-0.399 C 87.213,-1.478 86.371,-2.921 85.522,-4.374 84.633,-5.896 83.75,-7.409 82.904,-8.858 L 82.828,-8.989 H 82.676 C 48.754,-8.926 19.785,-8.871 5.486,-8.845 H 5.419 L 5.384,-8.789 C 3.625,-5.929 2.271,-3.726 1.342,-2.215 0.904,-1.497 0.566,-0.943 0.326,-0.55 0.101,-0.18 0,0 0,0 0,0 0.138,-0.2 0.383,-0.577 0.639,-0.972 0.997,-1.526 1.463,-2.246 2.41,-3.721 3.792,-5.87 5.586,-8.662 l -0.1,0.057 c 14.299,0.026 43.268,0.08 77.19,0.143 l -0.227,-0.131 c 0.845,1.449 1.728,2.962 2.617,4.486 0.849,1.452 1.691,2.896 2.476,4.241 L 87.77,-0.264 C 63.355,-0.211 41.467,-0.164 25.655,-0.13 17.743,-0.098 11.353,-0.072 6.914,-0.054 4.714,-0.042 3,-0.032 1.808,-0.025 1.238,-0.02 0.795,-0.016 0.471,-0.013 0.167,-0.008 0,0 0,0"
             style="fill:#263238;fill-opacity:1;fill-rule:nonzero;stroke:none"
             id="path180" /></g><g
           id="g182"
           transform="translate(331.4865,258.8552)"><path
             d="m 0,0 c -1.184,-2.948 0.245,-6.297 3.193,-7.482 2.948,-1.184 6.298,0.245 7.482,3.193 C 11.859,-1.341 10.43,2.009 7.482,3.193 4.534,4.377 1.185,2.948 0,0 m -5.335,5.542 c 0.709,0.949 1.534,1.785 2.446,2.497 l -0.582,3.189 4.931,2.104 1.9,-2.626 c 1.145,0.166 2.32,0.183 3.495,0.038 l 1.842,2.665 4.976,-1.999 -0.514,-3.198 c 0.949,-0.709 1.786,-1.534 2.497,-2.447 l 3.189,0.582 2.104,-4.931 -2.626,-1.9 c 0.166,-1.145 0.183,-2.32 0.038,-3.495 l 2.665,-1.842 -1.999,-4.976 -3.198,0.514 c -0.709,-0.949 -1.534,-1.785 -2.447,-2.497 l 0.582,-3.189 -4.931,-2.104 -1.9,2.626 c -1.145,-0.166 -2.32,-0.183 -3.495,-0.038 l -1.842,-2.665 -4.976,1.999 0.514,3.198 c -0.949,0.709 -1.786,1.534 -2.497,2.447 l -3.189,-0.583 -2.104,4.932 2.626,1.9 c -0.166,1.145 -0.183,2.32 -0.038,3.495 l -2.665,1.842 1.999,4.976 z"
             style="fill:#e0e0e0;fill-opacity:1;fill-rule:evenodd;stroke:none"
             id="path184" /></g><g
           id="g186"
           transform="translate(321.6217,144.9225)"><path
             d="m 0,0 c -3.432,-8.541 0.71,-18.247 9.252,-21.679 8.541,-3.431 18.248,0.71 21.679,9.251 C 34.363,-3.886 30.221,5.82 21.68,9.252 13.138,12.684 3.432,8.542 0,0 m -15.459,16.058 c 2.053,2.75 4.444,5.173 7.087,7.236 l -1.687,9.238 14.291,6.098 5.503,-7.609 c 3.318,0.482 6.722,0.532 10.129,0.112 l 5.338,7.721 14.416,-5.792 -1.489,-9.268 c 2.751,-2.054 5.175,-4.445 7.236,-7.089 l 9.239,1.687 6.098,-14.29 -7.61,-5.504 c 0.482,-3.318 0.531,-6.722 0.111,-10.127 l 7.722,-5.339 -5.792,-14.416 -9.268,1.488 c -2.053,-2.75 -4.445,-5.174 -7.089,-7.236 l 1.687,-9.239 -14.29,-6.097 -5.504,7.609 c -3.317,-0.481 -6.721,-0.53 -10.127,-0.11 l -5.338,-7.723 -14.417,5.793 1.488,9.268 c -2.75,2.053 -5.173,4.444 -7.236,7.089 l -9.238,-1.688 -6.098,14.29 7.61,5.505 c -0.482,3.317 -0.531,6.721 -0.111,10.127 l -7.723,5.338 5.792,14.417 z"
             style="fill:#f5f5f5;fill-opacity:1;fill-rule:evenodd;stroke:none"
             id="path188" /></g><g
           id="g190"
           transform="translate(242.5021,132.8493)"><path
             d="m 0,0 c 0,0 0.191,0.812 1.024,2.042 0.819,1.204 2.443,2.834 5.038,3.582 1.282,0.359 2.785,0.505 4.335,0.192 1.537,-0.317 3.146,-1.004 4.465,-2.207 0.674,-0.581 1.264,-1.29 1.751,-2.083 0.499,-0.786 0.883,-1.67 1.116,-2.61 0.509,-1.873 0.379,-3.975 -0.371,-5.889 -0.782,-1.902 -2.143,-3.509 -3.806,-4.51 -0.819,-0.518 -1.709,-0.89 -2.613,-1.114 -0.9,-0.235 -1.817,-0.338 -2.705,-0.291 -1.786,0.043 -3.422,0.661 -4.752,1.495 -1.336,0.848 -2.32,1.993 -2.996,3.139 -1.356,2.336 -1.402,4.636 -1.16,6.071 C -0.423,-0.718 0,0 0,0 c 0.062,-0.021 -0.288,-0.77 -0.47,-2.21 -0.176,-1.414 -0.067,-3.635 1.277,-5.853 0.67,-1.088 1.627,-2.167 2.91,-2.959 1.278,-0.78 2.841,-1.352 4.533,-1.379 0.842,-0.038 1.711,0.065 2.562,0.294 0.855,0.214 1.695,0.571 2.467,1.064 1.57,0.952 2.847,2.471 3.589,4.268 0.707,1.809 0.835,3.789 0.36,5.562 -0.217,0.89 -0.577,1.729 -1.045,2.475 C 15.727,2.016 15.172,2.691 14.538,3.246 13.297,4.397 11.772,5.065 10.311,5.387 8.837,5.703 7.398,5.586 6.162,5.264 3.657,4.592 2.042,3.063 1.19,1.921 0.325,0.756 0.059,-0.028 0,0"
             style="fill:#263238;fill-opacity:1;fill-rule:nonzero;stroke:none"
             id="path192" /></g><g
           id="g194"
           transform="translate(233.9489,141.7331)"><path
             d="M 0,0 C 0.003,-0.007 -0.105,0.005 -0.322,0.032 -0.561,0.065 -0.881,0.11 -1.296,0.168 -2.188,0.301 -3.473,0.492 -5.141,0.74 l 0.091,0.052 c -0.808,-2.047 -1.872,-4.738 -3.158,-7.994 l -0.048,0.16 c 1.298,-0.89 2.74,-1.878 4.284,-2.936 l 0.077,-0.052 -0.011,-0.094 c -0.207,-1.734 -0.209,-3.614 0.079,-5.56 l 0.015,-0.103 -0.085,-0.063 c -1.31,-0.952 -2.727,-1.983 -4.201,-3.056 l 0.062,0.226 c 1.069,-2.487 2.202,-5.127 3.392,-7.898 l -0.229,0.124 c 1.582,0.291 3.324,0.613 5.11,0.942 l 0.13,0.025 0.081,-0.105 c 1.062,-1.359 2.41,-2.717 3.968,-3.874 l 0.11,-0.082 -0.022,-0.137 c -0.253,-1.589 -0.531,-3.342 -0.816,-5.128 l -0.144,0.256 c 2.506,-1.004 5.209,-2.086 7.979,-3.195 l -0.294,-0.088 c 0.919,1.331 1.928,2.793 2.949,4.275 l 0.087,0.126 0.151,-0.02 c 1.722,-0.212 3.635,-0.214 5.535,0.065 l 0.153,0.023 0.091,-0.126 c 0.955,-1.317 1.996,-2.756 3.048,-4.208 l -0.311,0.087 c 2.502,1.069 5.185,2.215 7.904,3.377 l -0.155,-0.289 c -0.295,1.614 -0.614,3.356 -0.934,5.111 l -0.029,0.157 0.126,0.099 c 1.387,1.08 2.734,2.425 3.869,3.948 l 0.003,0.005 0.097,0.128 0.157,-0.025 c 1.721,-0.277 3.432,-0.552 5.127,-0.825 l -0.286,-0.162 c 1.083,2.696 2.152,5.355 3.206,7.976 l 0.094,-0.314 c -1.438,0.995 -2.862,1.981 -4.271,2.956 l -0.129,0.089 0.019,0.157 c 0.231,1.858 0.205,3.724 -0.057,5.534 l -0.022,0.153 0.125,0.091 c 1.425,1.029 2.828,2.041 4.213,3.042 l -0.084,-0.303 c -1.15,2.699 -2.272,5.337 -3.366,7.908 L 38.806,1.052 C 37.071,0.737 35.368,0.429 33.694,0.125 L 33.553,0.1 33.465,0.213 C 32.302,1.707 30.962,3.011 29.511,4.097 L 29.4,4.181 29.422,4.316 c 0.286,1.758 0.562,3.462 0.832,5.126 L 30.39,9.203 c -2.804,1.134 -5.45,2.203 -7.97,3.222 l 0.242,0.072 C 21.62,10.997 20.642,9.59 19.699,8.232 L 19.633,8.138 19.52,8.151 C 17.551,8.397 15.697,8.352 13.964,8.106 L 13.859,8.092 13.798,8.177 c -1.101,1.533 -2.093,2.915 -3.03,4.219 l 0.188,-0.051 C 7.887,11.052 5.273,9.949 3.035,9.006 l 0.069,0.13 C 3.464,7.092 3.759,5.415 4.005,4.019 L 4.014,3.968 3.974,3.937 C 2.479,2.781 1.518,1.75 0.901,1.057 0.611,0.715 0.389,0.453 0.227,0.262 0.076,0.076 0.003,-0.006 0,0 -0.002,0.007 0.063,0.106 0.192,0.289 0.329,0.475 0.537,0.755 0.835,1.113 1.432,1.828 2.379,2.886 3.869,4.07 L 3.838,3.988 C 3.574,5.382 3.257,7.055 2.872,9.094 L 2.854,9.186 2.942,9.224 c 2.229,0.963 4.834,2.088 7.891,3.408 l 0.114,0.05 0.074,-0.102 C 11.967,11.281 12.968,9.906 14.08,8.381 L 13.914,8.45 c 1.76,0.26 3.647,0.319 5.651,0.078 l -0.178,-0.08 c 0.936,1.363 1.907,2.775 2.942,4.28 l 0.092,0.132 0.15,-0.06 c 2.524,-1.008 5.175,-2.067 7.983,-3.189 L 30.716,9.546 30.689,9.372 C 30.424,7.707 30.153,6.003 29.874,4.244 l -0.089,0.22 c 1.486,-1.107 2.86,-2.435 4.053,-3.96 l -0.229,0.087 c 1.673,0.307 3.376,0.621 5.11,0.939 l 0.191,0.035 0.076,-0.178 c 1.1,-2.57 2.227,-5.204 3.382,-7.903 L 42.447,-6.7 42.284,-6.818 C 40.9,-7.821 39.499,-8.836 38.076,-9.867 l 0.104,0.244 c 0.27,-1.853 0.299,-3.766 0.065,-5.671 l -0.11,0.244 c 1.41,-0.973 2.835,-1.957 4.274,-2.951 l 0.172,-0.118 -0.078,-0.194 C 41.45,-20.935 40.382,-23.595 39.3,-26.29 l -0.078,-0.196 -0.208,0.034 c -1.696,0.271 -3.407,0.547 -5.128,0.822 l 0.254,0.104 -0.004,-0.005 c -1.164,-1.563 -2.545,-2.942 -3.968,-4.049 l 0.098,0.256 c 0.319,-1.755 0.637,-3.497 0.932,-5.112 l 0.037,-0.207 -0.193,-0.082 c -2.72,-1.159 -5.403,-2.302 -7.907,-3.37 l -0.191,-0.081 -0.121,0.168 c -1.05,1.453 -2.089,2.893 -3.042,4.212 l 0.244,-0.103 c -1.947,-0.284 -3.907,-0.279 -5.671,-0.058 l 0.238,0.106 c -1.025,-1.479 -2.036,-2.939 -2.958,-4.269 l -0.112,-0.162 -0.182,0.074 c -2.768,1.115 -5.468,2.204 -7.972,3.214 l -0.175,0.07 0.03,0.186 c 0.29,1.785 0.574,3.537 0.832,5.126 l 0.088,-0.219 c -1.588,1.187 -2.96,2.579 -4.039,3.971 l 0.211,-0.081 c -1.787,-0.323 -3.53,-0.637 -5.113,-0.923 l -0.164,-0.03 -0.064,0.153 c -1.178,2.777 -2.299,5.422 -3.356,7.914 l -0.059,0.139 0.122,0.087 c 1.481,1.065 2.904,2.088 4.218,3.034 l -0.069,-0.166 c -0.281,1.979 -0.267,3.888 -0.044,5.646 l 0.066,-0.146 c -1.535,1.07 -2.97,2.071 -4.261,2.97 l -0.088,0.062 0.04,0.098 c 1.324,3.242 2.418,5.92 3.251,7.958 L -5.18,0.919 -5.114,0.907 C -3.467,0.623 -2.198,0.404 -1.318,0.252 -0.9,0.176 -0.578,0.117 -0.337,0.073 -0.116,0.031 -0.002,0.007 0,0"
             style="fill:#263238;fill-opacity:1;fill-rule:nonzero;stroke:none"
             id="path196" /></g><g
           id="g198"
           transform="translate(241.1676,232.1159)"><path
             d="M 0,0 C -1.178,-12.638 8.113,-23.839 20.751,-25.017 33.39,-26.194 44.59,-16.903 45.768,-4.266 46.945,8.374 37.654,19.574 25.016,20.751 12.378,21.929 1.178,12.639 0,0 m -26.746,15.146 c 1.633,4.441 3.841,8.585 6.523,12.35 l -5.861,11.547 16.489,13.678 10.266,-7.893 c 4.196,1.941 8.676,3.344 13.343,4.129 l 4.019,12.303 21.331,-1.988 1.677,-12.833 c 4.442,-1.633 8.586,-3.841 12.351,-6.525 L 64.939,45.775 78.616,29.286 70.723,19.02 c 1.941,-4.196 3.343,-8.675 4.128,-13.342 L 87.156,1.658 85.168,-19.674 72.334,-21.35 c -1.633,-4.442 -3.841,-8.586 -6.525,-12.35 l 5.861,-11.547 -16.489,-13.679 -10.266,7.895 c -4.195,-1.941 -8.675,-3.344 -13.342,-4.128 l -4.019,-12.306 -21.332,1.988 -1.676,12.834 c -4.442,1.634 -8.586,3.841 -12.351,6.525 l -11.547,-5.861 -13.678,16.489 7.894,10.266 c -1.941,4.196 -3.343,8.675 -4.128,13.342 l -12.305,4.02 1.987,21.331 z"
             style="fill:#e0e0e0;fill-opacity:1;fill-rule:evenodd;stroke:none"
             id="path200" /></g><g
           id="g202"
           transform="translate(173.7531,67.6364)"><path
             d="M 0,0 H 408.028"
             style="fill:#263238;fill-opacity:1;fill-rule:nonzero;stroke:none"
             id="path204" /></g><g
           id="g206"
           transform="translate(581.7809,67.6364)"><path
             d="m 0,0 c 0,-0.137 -91.348,-0.248 -204.004,-0.248 -112.696,0 -204.024,0.111 -204.024,0.248 0,0.137 91.328,0.248 204.024,0.248 C -91.348,0.248 0,0.137 0,0"
             style="fill:#263238;fill-opacity:1;fill-rule:nonzero;stroke:none"
             id="path208" /></g></g></g><g
       id="g210"><g
         id="g212"
         clip-path="url(#clipPath216)"><g
           id="g218"
           transform="translate(362.3229,374.2062)"><path
             d="m 0,0 c -6.292,-2.761 -9.954,-9.542 -11.326,-16.275 -1.373,-6.733 -0.923,-13.692 -1.519,-20.538 -0.595,-6.845 -2.472,-14 -7.469,-18.718 -4.656,-4.396 -11.514,-6.185 -15.481,-11.212 -2.945,-3.732 -3.809,-9.005 -2.21,-13.481 1.599,-4.477 5.608,-8.008 10.251,-9.03 -3.138,-4.97 -1.568,-11.907 2.446,-16.2 4.015,-4.293 9.912,-6.338 15.722,-7.223 10.22,-1.556 21.119,0.163 29.752,5.851 8.632,5.688 14.674,15.566 14.652,25.904"
             style="fill:#263238;fill-opacity:1;fill-rule:nonzero;stroke:none"
             id="path220" /></g><g
           id="g222"
           transform="translate(335.0709,272.6276)"><path
             d="m 0,0 c 0,0 -0.566,0.705 -1.108,2.228 -0.539,1.508 -0.917,3.897 -0.402,6.749 0.259,1.419 0.726,2.942 1.444,4.482 0.735,1.532 1.711,3.067 2.888,4.562 2.344,3.009 5.488,5.775 8.652,8.753 3.161,2.991 6.056,5.965 8.41,8.902 2.383,2.914 4.165,5.817 5.381,8.383 1.211,2.571 1.857,4.794 2.185,6.35 0.188,0.773 0.242,1.392 0.33,1.803 0.074,0.414 0.12,0.631 0.137,0.629 0.018,-10e-4 0.004,-0.222 -0.038,-0.641 -0.056,-0.417 -0.08,-1.043 -0.24,-1.828 C 27.367,48.793 26.766,46.53 25.583,43.911 24.396,41.299 22.623,38.343 20.24,35.391 17.887,32.415 14.985,29.413 11.814,26.415 8.638,23.425 5.509,20.688 3.18,17.737 2.011,16.273 1.039,14.771 0.304,13.281 -0.413,11.783 -0.89,10.298 -1.165,8.913 -1.713,6.128 -1.398,3.789 -0.924,2.287 -0.449,0.773 0.053,0.027 0,0"
             style="fill:#455a64;fill-opacity:1;fill-rule:nonzero;stroke:none"
             id="path224" /></g><g
           id="g226"
           transform="translate(437.5348,351.6179)"><path
             d="m 0,0 c 0,-9.242 4.265,-17.711 8.099,-20.826 5.424,-4.405 13.382,-6.535 18.628,-8.001 7.638,-2.135 14.042,-8.823 14.996,-16.697 0.955,-7.874 -4.195,-16.293 -11.875,-18.273 4.828,-4.931 3.39,-13.407 -0.584,-19.048 -7.532,-10.691 -22.563,-14.799 -35.028,-10.846 -12.465,3.952 -22.018,15 -25.739,27.536"
             style="fill:#263238;fill-opacity:1;fill-rule:nonzero;stroke:none"
             id="path228" /></g><g
           id="g230"
           transform="translate(456.5397,260.5969)"><path
             d="m 0,0 c -0.034,0.084 1.224,0.084 2.938,1.293 0.837,0.605 1.749,1.528 2.461,2.819 0.726,1.274 1.265,2.91 1.317,4.757 0.046,1.84 -0.504,3.861 -1.545,5.764 -1.048,1.909 -2.603,3.7 -4.491,5.267 -3.785,3.191 -8.936,5.184 -13.914,8.048 -2.482,1.455 -4.785,3.144 -6.61,5.188 -0.914,1.016 -1.703,2.121 -2.309,3.294 -0.61,1.17 -1.029,2.41 -1.294,3.635 -0.533,2.466 -0.482,4.871 -0.324,7.074 0.167,2.21 0.449,4.248 0.643,6.111 0.409,3.719 0.363,6.77 -0.139,8.804 -0.134,0.497 -0.255,0.943 -0.363,1.338 -0.114,0.384 -0.268,0.69 -0.361,0.949 -0.203,0.512 -0.303,0.785 -0.288,0.793 0.015,0.008 0.145,-0.251 0.38,-0.754 0.108,-0.254 0.279,-0.557 0.409,-0.941 0.121,-0.396 0.259,-0.842 0.411,-1.341 0.567,-2.046 0.667,-5.144 0.301,-8.883 -0.173,-1.872 -0.435,-3.911 -0.582,-6.105 -0.14,-2.186 -0.172,-4.553 0.359,-6.945 0.513,-2.391 1.703,-4.743 3.52,-6.705 1.782,-1.988 4.044,-3.647 6.497,-5.085 C -8.061,25.54 -2.876,23.523 0.973,20.251 2.889,18.643 4.47,16.803 5.531,14.83 6.588,12.86 7.136,10.776 7.066,8.858 6.989,6.946 6.408,5.271 5.64,3.974 4.885,2.661 3.926,1.731 3.049,1.135 2.176,0.517 1.363,0.291 0.838,0.126 0.289,0.026 0.003,-0.017 0,0"
             style="fill:#455a64;fill-opacity:1;fill-rule:nonzero;stroke:none"
             id="path232" /></g><g
           id="g234"
           transform="translate(474.5436,291.4318)"><path
             d="m 0,0 c -0.093,0.033 0.803,0.761 0.933,2.567 0.043,0.882 -0.134,1.992 -0.715,3.117 -0.567,1.117 -1.486,2.3 -2.834,3.129 -1.356,0.829 -3.057,1.35 -4.914,1.66 -1.862,0.323 -3.892,0.44 -6.021,0.771 -4.256,0.658 -8.803,2.339 -12.935,5.116 -4.123,2.793 -7.383,6.39 -9.557,10.109 -2.196,3.719 -3.355,7.486 -3.925,10.679 -0.571,3.207 -0.542,5.859 -0.409,7.665 0.07,0.906 0.154,1.604 0.24,2.075 0.074,0.471 0.122,0.717 0.139,0.715 0.059,-0.008 -0.113,-0.997 -0.186,-2.8 -0.074,-1.799 -0.047,-4.427 0.561,-7.591 0.607,-3.151 1.787,-6.858 3.973,-10.51 2.164,-3.652 5.38,-7.179 9.441,-9.931 4.07,-2.735 8.541,-4.403 12.73,-5.076 2.096,-0.339 4.133,-0.472 6.019,-0.818 1.885,-0.332 3.629,-0.884 5.029,-1.766 C -1.024,8.218 -0.098,6.976 0.467,5.805 1.045,4.628 1.2,3.468 1.125,2.554 1.046,1.629 0.717,0.97 0.467,0.563 0.332,0.363 0.205,0.228 0.129,0.132 0.05,0.039 0.006,-0.006 0,0"
             style="fill:#455a64;fill-opacity:1;fill-rule:nonzero;stroke:none"
             id="path236" /></g><g
           id="g238"
           transform="translate(366.8107,243.2858)"><path
             d="m 0,0 c 1.316,13.81 2.449,28.371 2.449,28.371 0,0 -17.493,4.704 -18.895,28.27 -1.335,22.474 7.34,73.216 7.34,73.216 26.623,7.92 56.262,-2.014 72.498,-24.297 L 50.854,-6.421 C 49.398,-19.421 37.061,-28.522 23.153,-26.857 9.107,-25.176 -1.254,-13.156 0,0"
             style="fill:#b78876;fill-opacity:1;fill-rule:nonzero;stroke:none"
             id="path240" /></g><g
           id="g242"
           transform="translate(360.3585,332.5817)"><path
             d="M 0,0 C -0.21,-1.566 0.943,-3.035 2.574,-3.285 4.202,-3.534 5.695,-2.47 5.905,-0.904 6.116,0.662 4.963,2.133 3.335,2.382 1.704,2.632 0.21,1.565 0,0"
             style="fill:#263238;fill-opacity:1;fill-rule:nonzero;stroke:none"
             id="path244" /></g><g
           id="g246"
           transform="translate(355.8615,336.3884)"><path
             d="m 0,0 c 0.331,-0.424 2.75,1.021 5.951,0.698 3.202,-0.277 5.391,-2.156 5.777,-1.798 0.187,0.157 -0.12,0.894 -1.07,1.74 C 9.724,1.481 8.077,2.372 6.082,2.56 4.085,2.745 2.335,2.176 1.297,1.519 0.238,0.86 -0.164,0.191 0,0"
             style="fill:#263238;fill-opacity:1;fill-rule:nonzero;stroke:none"
             id="path248" /></g><g
           id="g250"
           transform="translate(393.0836,328.7897)"><path
             d="M 0,0 C -0.21,-1.566 0.943,-3.035 2.574,-3.285 4.203,-3.534 5.695,-2.47 5.905,-0.904 6.116,0.662 4.963,2.133 3.335,2.383 1.704,2.632 0.211,1.566 0,0"
             style="fill:#263238;fill-opacity:1;fill-rule:nonzero;stroke:none"
             id="path252" /></g><g
           id="g254"
           transform="translate(389.1598,331.9367)"><path
             d="m 0,0 c 0.331,-0.424 2.752,1.021 5.951,0.698 3.202,-0.277 5.391,-2.156 5.777,-1.798 0.187,0.157 -0.117,0.894 -1.07,1.741 C 9.724,1.481 8.077,2.372 6.082,2.56 4.086,2.745 2.336,2.176 1.297,1.519 0.24,0.86 -0.164,0.191 0,0"
             style="fill:#263238;fill-opacity:1;fill-rule:nonzero;stroke:none"
             id="path256" /></g><g
           id="g258"
           transform="translate(375.2013,309.3327)"><path
             d="m 0,0 c 0.033,0.181 -1.924,0.72 -5.109,1.45 -0.809,0.165 -1.567,0.404 -1.65,0.975 -0.135,0.61 0.295,1.458 0.784,2.37 0.964,1.903 1.973,3.898 3.031,5.989 C 1.287,19.318 4.435,26.369 4.09,26.536 3.745,26.703 0.035,19.921 -4.195,11.387 -5.218,9.28 -6.196,7.273 -7.128,5.351 -7.528,4.452 -8.165,3.451 -7.868,2.184 -7.708,1.551 -7.151,1.048 -6.641,0.856 -6.132,0.645 -5.673,0.59 -5.271,0.526 -2.042,0.032 -0.03,-0.181 0,0"
             style="fill:#263238;fill-opacity:1;fill-rule:nonzero;stroke:none"
             id="path260" /></g><g
           id="g262"
           transform="translate(369.2599,271.6569)"><path
             d="m 0,0 c 0,0 15.511,-2.542 31.891,5.231 0,0 -9.108,-15.197 -32.117,-10.74 z"
             style="fill:#aa6550;fill-opacity:1;fill-rule:nonzero;stroke:none"
             id="path264" /></g><g
           id="g266"
           transform="translate(375.7955,301.4821)"><path
             d="M 0,0 C 1.302,1.41 3.401,2.047 5.384,1.634 6.759,1.348 8.097,0.54 8.829,-0.675 9.563,-1.89 9.581,-3.514 8.708,-4.517 7.724,-5.647 5.891,-5.75 4.405,-5.166 2.919,-4.581 1.703,-3.445 0.553,-2.32 c -0.319,0.312 -0.643,0.635 -0.822,1.037 -0.178,0.401 -0.175,0.903 0.123,1.192"
             style="fill:#aa6550;fill-opacity:1;fill-rule:nonzero;stroke:none"
             id="path268" /></g><g
           id="g270"
           transform="translate(384.4069,306.1901)"><path
             d="m 0,0 c -0.518,0.082 -0.866,-3.394 -4.084,-5.568 -3.214,-2.183 -6.88,-1.428 -6.956,-1.911 -0.069,-0.213 0.759,-0.756 2.319,-0.953 1.529,-0.203 3.818,0.069 5.786,1.399 1.964,1.335 2.943,3.276 3.202,4.691 C 0.543,-0.902 0.24,-0.003 0,0"
             style="fill:#263238;fill-opacity:1;fill-rule:nonzero;stroke:none"
             id="path272" /></g><g
           id="g274"
           transform="translate(419.1617,324.091)"><path
             d="m 0,0 c 2.528,0.236 5.146,-0.09 7.422,-1.213 2.278,-1.122 4.185,-3.087 4.979,-5.499 0.796,-2.417 0.427,-5.124 -0.666,-7.423 -1.092,-2.299 -2.862,-4.223 -4.84,-5.824 -1.422,-1.15 -3.01,-2.171 -4.799,-2.546 -1.789,-0.374 -3.817,-0.002 -5.089,1.31"
             style="fill:#b78876;fill-opacity:1;fill-rule:nonzero;stroke:none"
             id="path276" /></g><g
           id="g278"
           transform="translate(419.0533,308.9142)"><path
             d="m 0,0 c -0.293,-0.064 0.638,-1.671 2.967,-1.284 1.12,0.181 2.28,1.035 3.044,2.172 0.769,1.155 1.323,2.449 1.64,3.996 0.31,1.533 0.12,3.214 -0.619,4.471 C 6.336,10.63 5.075,11.468 3.962,11.602 1.634,11.883 0.751,10.338 1.011,10.265 1.179,10.058 2.166,10.802 3.658,10.284 5.096,9.871 6.335,7.714 5.772,5.237 5.244,2.711 4.033,0.471 2.616,0.022 1.133,-0.56 0.176,0.19 0,0"
             style="fill:#aa6550;fill-opacity:1;fill-rule:nonzero;stroke:none"
             id="path280" /></g><g
           id="g282"
           transform="translate(368.9191,363.2184)"><path
             d="m 0,0 c -3.423,-7.946 -10.736,-14.104 -19.148,-16.125 -0.495,5.728 -0.831,11.53 0.106,17.203 0.936,5.673 3.247,11.271 7.384,15.264 4.137,3.993 10.273,6.143 15.827,4.655"
             style="fill:#263238;fill-opacity:1;fill-rule:nonzero;stroke:none"
             id="path284" /></g><g
           id="g286"
           transform="translate(370.5192,373.7438)"><path
             d="m 0,0 c -2.885,-7.259 -1.699,-15.989 3.02,-22.215 4.718,-6.226 12.802,-9.729 20.572,-8.913 1.522,0.16 3.115,0.464 4.544,-0.086 1.524,-0.589 2.528,-2.024 3.437,-3.383 3.698,-5.527 7.606,-11.272 13.435,-14.473 5.829,-3.201 14.175,-2.887 18.072,2.502 1.896,2.621 2.453,5.951 2.893,9.155 1.477,10.774 2.084,22.336 -3.05,31.923 C 59.109,1.631 52.408,6.926 44.996,10.138 37.584,13.351 29.468,14.627 21.404,15.121 16.719,15.408 11.867,15.414 7.521,13.638 3.175,11.862 -0.578,7.916 -0.824,3.228"
             style="fill:#263238;fill-opacity:1;fill-rule:nonzero;stroke:none"
             id="path288" /></g><g
           id="g290"
           transform="translate(435.4625,333.2858)"><path
             d="m 0,0 c -0.017,-0.004 -0.113,0.268 -0.283,0.791 -0.158,0.525 -0.427,1.289 -0.783,2.268 -0.728,1.949 -1.948,4.723 -3.946,7.861 -2.009,3.121 -4.846,6.589 -8.671,9.676 -3.805,3.117 -8.652,5.624 -13.887,7.82 -5.246,2.196 -10.374,4.009 -14.863,6.109 -4.49,2.084 -8.32,4.444 -11.207,6.844 -2.884,2.406 -4.823,4.788 -5.943,6.557 -0.556,0.889 -0.961,1.593 -1.19,2.096 -0.246,0.493 -0.367,0.755 -0.352,0.763 0.016,0.007 0.167,-0.24 0.44,-0.716 0.256,-0.486 0.686,-1.17 1.262,-2.036 1.162,-1.723 3.121,-4.045 6.006,-6.392 2.888,-2.343 6.701,-4.652 11.177,-6.702 4.47,-2.064 9.596,-3.863 14.862,-6.067 5.255,-2.204 10.146,-4.746 13.982,-7.921 3.854,-3.143 6.692,-6.671 8.68,-9.843 1.978,-3.19 3.156,-6.005 3.83,-7.984 C -0.555,2.131 -0.315,1.355 -0.187,0.818 -0.048,0.286 0.017,0.004 0,0"
             style="fill:#455a64;fill-opacity:1;fill-rule:nonzero;stroke:none"
             id="path292" /></g><g
           id="g294"
           transform="translate(428.2496,334.5617)"><path
             d="m 0,0 c -0.016,-0.007 -0.151,0.22 -0.395,0.658 -0.251,0.433 -0.631,1.068 -1.19,1.836 -1.102,1.543 -2.982,3.595 -5.759,5.558 -2.758,1.989 -6.412,3.778 -10.557,5.543 -2.07,0.895 -4.258,1.811 -6.483,2.869 -2.22,1.063 -4.482,2.245 -6.724,3.588 -4.487,2.681 -8.458,5.755 -11.646,8.981 -3.195,3.222 -5.599,6.569 -7.271,9.557 -1.688,2.988 -2.644,5.612 -3.201,7.439 -0.261,0.921 -0.453,1.638 -0.548,2.133 -0.105,0.493 -0.152,0.753 -0.136,0.756 0.017,0.004 0.097,-0.249 0.233,-0.731 0.126,-0.486 0.347,-1.192 0.635,-2.1 0.611,-1.799 1.608,-4.383 3.321,-7.323 1.698,-2.941 4.108,-6.234 7.29,-9.408 3.176,-3.179 7.121,-6.216 11.577,-8.878 2.227,-1.334 4.474,-2.513 6.68,-3.576 2.208,-1.057 4.387,-1.981 6.455,-2.888 4.141,-1.79 7.817,-3.629 10.58,-5.678 C -4.357,6.315 -2.49,4.198 -1.428,2.605 -0.887,1.812 -0.532,1.156 -0.307,0.706 -0.09,0.25 0.015,0.007 0,0"
             style="fill:#455a64;fill-opacity:1;fill-rule:nonzero;stroke:none"
             id="path296" /></g><g
           id="g298"
           transform="translate(349.8527,337.883)"><path
             d="M 0,0 C -0.016,-0.006 -0.093,0.178 -0.226,0.534 -0.354,0.892 -0.555,1.417 -0.773,2.106 -1.141,3.5 -1.66,5.547 -1.775,8.145 c -0.115,2.584 0.087,5.709 1.026,9.017 0.936,3.291 2.487,6.817 4.964,9.929 1.191,1.591 2.606,2.933 4.021,4.152 1.447,1.185 2.941,2.187 4.365,3.125 2.856,1.856 5.405,3.557 7.219,5.368 1.843,1.78 2.955,3.563 3.535,4.866 0.58,1.309 0.712,2.105 0.765,2.091 0.016,-0.003 -0.015,-0.2 -0.089,-0.575 -0.08,-0.372 -0.232,-0.916 -0.498,-1.592 C 23,43.179 21.908,41.328 20.067,39.488 18.256,37.614 15.689,35.86 12.853,33.987 11.439,33.041 9.964,32.039 8.545,30.869 7.161,29.666 5.775,28.349 4.606,26.786 2.174,23.732 0.637,20.272 -0.309,17.039 -1.259,13.789 -1.494,10.712 -1.425,8.158 -1.356,5.592 -0.895,3.557 -0.587,2.157 -0.401,1.508 -0.25,0.981 -0.131,0.566 -0.03,0.201 0.016,0.006 0,0"
             style="fill:#455a64;fill-opacity:1;fill-rule:nonzero;stroke:none"
             id="path300" /></g><g
           id="g302"
           transform="translate(407.1608,291.6096)"><path
             d="m 0,0 c -5.418,0 -10.854,1.847 -14.856,5.449 l 0.635,0.707 c 6.951,-6.253 18.413,-6.977 26.095,-1.649 7.683,5.329 11.021,16.32 7.598,25.02 l 0.884,0.349 C 23.935,20.782 20.446,9.295 12.417,3.726 8.813,1.226 4.412,0 0,0"
             style="fill:#e8505b;fill-opacity:1;fill-rule:nonzero;stroke:none"
             id="path304" /></g><g
           id="g306"
           transform="translate(399.4293,295.6799)"><path
             d="m 0,0 c 0,-2.545 -2.063,-4.607 -4.607,-4.607 -2.545,0 -4.608,2.062 -4.608,4.607 0,2.544 2.063,4.607 4.608,4.607 C -2.063,4.607 0,2.544 0,0"
             style="fill:#e8505b;fill-opacity:1;fill-rule:nonzero;stroke:none"
             id="path308" /></g><g
           id="g310"
           transform="translate(445.6334,319.1013)"><path
             d="m 0,0 c 0,-8.522 -6.908,-15.43 -15.431,-15.43 -8.521,0 -15.429,6.908 -15.429,15.43 0,8.522 6.908,15.431 15.429,15.431 C -6.908,15.431 0,8.522 0,0"
             style="fill:#e8505b;fill-opacity:1;fill-rule:nonzero;stroke:none"
             id="path312" /></g><g
           id="g314"
           transform="translate(427.7057,321.2473)"><path
             d="m 0,0 c -0.103,0.011 -0.065,1.407 0.089,3.914 0.05,1.267 0.11,2.799 0.18,4.57 0.017,1.782 0.076,3.808 0.004,6.046 0,1.119 -0.076,2.288 -0.142,3.507 -0.043,1.22 -0.185,2.48 -0.306,3.787 -0.098,1.309 -0.347,2.643 -0.52,4.028 -0.128,0.686 -0.258,1.38 -0.39,2.085 -0.122,0.707 -0.271,1.417 -0.459,2.127 -1.308,5.707 -3.77,11.834 -8.078,17.015 -4.302,5.191 -9.93,8.667 -15.382,10.78 -5.47,2.144 -10.728,3.168 -15.146,3.808 -4.432,0.618 -8.062,0.805 -10.567,0.981 -2.508,0.115 -3.9,0.216 -3.901,0.321 0,0.1 1.391,0.195 3.914,0.258 2.521,0.001 6.183,-0.026 10.684,-0.518 4.489,-0.514 9.861,-1.44 15.512,-3.573 5.627,-2.097 11.533,-5.679 16.029,-11.105 4.501,-5.415 7.005,-11.802 8.271,-17.66 0.182,-0.731 0.326,-1.46 0.44,-2.184 C 0.355,27.465 0.477,26.753 0.597,26.051 0.751,24.637 0.979,23.272 1.053,21.94 1.149,20.61 1.264,19.327 1.276,18.091 1.314,16.855 1.358,15.67 1.325,14.539 1.329,12.276 1.196,10.235 1.1,8.444 0.951,6.656 0.81,5.119 0.666,3.865 0.333,1.363 0.102,-0.012 0,0"
             style="fill:#e8505b;fill-opacity:1;fill-rule:nonzero;stroke:none"
             id="path316" /></g><g
           id="g318"><g
             id="g320" /><g
             id="g332"><g
               clip-path="url(#clipPath324)"
               opacity="0.399994"
               id="g330"><g
                 transform="translate(441.2457,319.1013)"
                 id="g328"><path
                   d="m 0,0 c 0,-5.866 -4.755,-10.621 -10.621,-10.621 -5.865,0 -10.62,4.755 -10.62,10.621 0,5.866 4.755,10.621 10.62,10.621 C -4.755,10.621 0,5.866 0,0"
                   style="fill:#000000;fill-opacity:1;fill-rule:nonzero;stroke:none"
                   id="path326" /></g></g></g></g><g
           id="g334"
           transform="translate(427.1305,329.0075)"><path
             d="m 0,0 c -0.007,0.016 0.155,0.1 0.475,0.247 0.322,0.139 0.815,0.309 1.472,0.436 1.295,0.23 3.373,0.243 5.51,-0.943 1.055,-0.576 2.101,-1.48 2.829,-2.715 0.747,-1.22 1.155,-2.751 1.137,-4.356 -0.015,-1.601 -0.507,-3.306 -1.569,-4.717 -1.06,-1.412 -2.685,-2.438 -4.489,-2.874 -1.803,-0.44 -3.716,-0.278 -5.309,0.483 -1.601,0.758 -2.803,2.071 -3.54,3.491 -0.742,1.428 -1.022,2.988 -0.907,4.411 0.13,1.435 0.668,2.684 1.311,3.699 1.305,2.046 3.102,3.109 4.398,3.425 C 1.969,0.764 2.497,0.773 2.847,0.761 3.198,0.728 3.379,0.702 3.377,0.685 3.38,0.612 2.624,0.793 1.371,0.401 0.136,0.041 -1.563,-1.03 -2.783,-3.024 c -0.6,-0.988 -1.094,-2.196 -1.198,-3.545 -0.091,-1.347 0.188,-2.821 0.902,-4.168 0.709,-1.339 1.849,-2.564 3.342,-3.263 1.486,-0.703 3.285,-0.856 4.985,-0.44 1.702,0.411 3.227,1.374 4.218,2.685 0.996,1.311 1.474,2.916 1.5,4.434 0.029,1.52 -0.342,2.975 -1.033,4.137 C 9.26,-2.01 8.284,-1.136 7.283,-0.564 5.259,0.611 3.25,0.66 1.978,0.492 0.681,0.303 0.021,-0.055 0,0"
             style="fill:#263238;fill-opacity:1;fill-rule:nonzero;stroke:none"
             id="path336" /></g><g
           id="g338"
           transform="translate(430.5328,308.6403)"><path
             d="M 0,0 C -0.132,-0.023 -0.429,1.092 -0.485,2.505 -0.546,3.918 -0.342,5.054 -0.209,5.042 -0.069,5.031 -0.05,3.905 0.01,2.525 0.064,1.146 0.138,0.022 0,0"
             style="fill:#263238;fill-opacity:1;fill-rule:nonzero;stroke:none"
             id="path340" /></g><g
           id="g342"
           transform="translate(436.3922,310.7028)"><path
             d="m 0,0 c -0.128,-0.049 -0.622,0.912 -1.104,2.148 -0.481,1.236 -0.768,2.278 -0.64,2.328 0.127,0.05 0.621,-0.912 1.102,-2.148 C -0.16,1.092 0.127,0.05 0,0"
             style="fill:#263238;fill-opacity:1;fill-rule:nonzero;stroke:none"
             id="path344" /></g><g
           id="g346"
           transform="translate(440.3395,315.3215)"><path
             d="M 0,0 C -0.092,-0.102 -0.82,0.411 -1.626,1.143 -2.432,1.875 -3.01,2.551 -2.918,2.653 -2.825,2.754 -2.098,2.242 -1.292,1.51 -0.486,0.777 0.092,0.101 0,0"
             style="fill:#263238;fill-opacity:1;fill-rule:nonzero;stroke:none"
             id="path348" /></g><g
           id="g350"
           transform="translate(440.6198,321.7692)"><path
             d="m 0,0 c -0.046,-0.129 -0.574,-0.056 -1.179,0.163 -0.605,0.218 -1.057,0.5 -1.01,0.629 0.045,0.128 0.574,0.055 1.178,-0.163 C -0.406,0.41 0.047,0.129 0,0"
             style="fill:#263238;fill-opacity:1;fill-rule:nonzero;stroke:none"
             id="path352" /></g><g
           id="g354"
           transform="translate(423.5963,311.0222)"><path
             d="M 0,0 C -0.127,0.042 0.148,1.171 0.8,2.437 1.447,3.706 2.204,4.587 2.312,4.51 2.427,4.429 1.87,3.445 1.241,2.211 0.606,0.98 0.132,-0.047 0,0"
             style="fill:#263238;fill-opacity:1;fill-rule:nonzero;stroke:none"
             id="path356" /></g><g
           id="g358"
           transform="translate(420.4293,316.4328)"><path
             d="M 0,0 C -0.096,0.098 0.509,0.846 1.35,1.67 2.191,2.496 2.951,3.085 3.047,2.988 3.143,2.89 2.538,2.142 1.697,1.317 0.855,0.492 0.096,-0.098 0,0"
             style="fill:#263238;fill-opacity:1;fill-rule:nonzero;stroke:none"
             id="path360" /></g><g
           id="g362"
           transform="translate(422.9078,323.7892)"><path
             d="m 0,0 c 0.035,-0.132 -0.396,-0.362 -0.963,-0.512 -0.566,-0.151 -1.055,-0.165 -1.09,-0.033 -0.035,0.132 0.397,0.361 0.963,0.512 C -0.523,0.118 -0.035,0.132 0,0"
             style="fill:#263238;fill-opacity:1;fill-rule:nonzero;stroke:none"
             id="path364" /></g><g
           id="g366"
           transform="translate(503.6158,239.3727)"><path
             d="m 0,0 c -0.996,5.65 -3.206,8.721 -4.854,10.329 -1.546,1.508 -3.039,3.077 -4.888,4.202 -2.243,1.366 -5.295,3.061 -7.245,3.483 -2.412,0.521 -3,3.658 -0.979,4.552 2.021,0.891 8.701,-0.385 15.126,-5.109 6.425,-4.726 3.176,7.244 2.07,11.625 -1.106,4.38 -3.888,18.08 -2.803,19.451 1.591,2.01 4.101,0.645 5.103,-3.754 1.016,-4.452 4.942,-17.401 7.239,-16.765 2.263,0.625 -3.671,22.859 -3.671,22.859 0,0 -2.042,4.567 0.586,5.388 4.74,1.482 9.299,-22.572 9.677,-24.869 0.261,-1.6 2.785,-0.999 2.411,0.704 -0.384,1.753 -6.438,22.054 -1.628,23.608 3.692,1.193 3.938,-19.756 7.542,-23.333 3.605,-3.574 -1.819,15.908 1.758,16.903 1.331,0.37 2.382,0.462 3.874,-11.132 C 30.119,31.911 29.6,23.32 32.03,11.43"
             style="fill:#b78876;fill-opacity:1;fill-rule:nonzero;stroke:none"
             id="path368" /></g><g
           id="g370"
           transform="translate(491.6305,194.6511)"><path
             d="M 0,0 21.859,-31.37 11.361,49.533 42.613,61.856 c 0,0 39.439,-151.194 -13.458,-153.321 0,0 -36.6,1.002 -63.921,64.368 z"
             style="fill:#b78876;fill-opacity:1;fill-rule:nonzero;stroke:none"
             id="path372" /></g><g
           id="g374"
           transform="translate(526.6901,257.1027)"><path
             d="M 0,0 C 0.057,-0.081 -0.685,-0.572 -1.646,-1.649 -2.6,-2.711 -3.741,-4.448 -4.207,-6.69 l -0.123,-0.591 -0.435,0.435 c -0.488,0.488 -1.015,0.981 -1.615,1.415 -2.268,1.682 -4.811,2.388 -6.644,2.577 -1.849,0.199 -3.012,-0.002 -3.028,0.112 -0.018,0.065 1.134,0.441 3.065,0.36 1.909,-0.073 4.612,-0.737 7.005,-2.512 0.631,-0.457 1.186,-0.981 1.693,-1.504 l -0.558,-0.156 c 0.532,2.387 1.821,4.174 2.897,5.198 C -0.863,-0.317 -0.028,0.054 0,0"
             style="fill:#aa6550;fill-opacity:1;fill-rule:nonzero;stroke:none"
             id="path376" /></g><g
           id="g378"
           transform="translate(475.9283,129.2458)"><path
             d="m 0,0 -26.453,33.555 -6.874,-34.32 c -2.785,-13.9 -1.351,-28.316 4.12,-41.395 l 3.413,-8.164 h -122.482 l 3.062,10.904 c 1.727,13.36 -0.586,27.309 -0.183,46.443 l -3.403,21.571 -18.528,-78.918 h -54.473 c 0,0 29.902,122.49 48.631,146.725 23.614,30.557 64.869,26.526 64.869,26.526 l 25.278,-39.618 24.684,35.722 c 0,0 42.42,9.017 75.536,-48.003 l 17.722,-30.374 -8.228,62.527 38.351,8.854 c 0,0 13.851,-61.434 12.94,-94.328 C 77.169,-11.674 64.665,-27.089 47.334,-28.605 20.092,-30.989 0,0 0,0"
             style="fill:#e8505b;fill-opacity:1;fill-rule:nonzero;stroke:none"
             id="path380" /></g><g
           id="g382"
           transform="translate(367.6271,252.173)"><path
             d="m 0,0 0.432,4.935 c 0,0 18.724,-4.162 25,-36.852 0,0 6.299,30.17 26.464,33.209 l 3.401,-8.691 -12.381,-32.235 -21.747,-6.357 -21.155,6.357 -9.621,19.106 z"
             style="fill:#e8505b;fill-opacity:1;fill-rule:nonzero;stroke:none"
             id="path384" /></g><g
           id="g386"
           transform="translate(315.4537,239.1725)"><path
             d="m 0,0 c 0.017,0.001 0.049,-0.29 0.095,-0.847 0.044,-0.598 0.102,-1.409 0.176,-2.431 0.136,-2.114 0.357,-5.169 0.66,-8.942 0.603,-7.545 1.639,-17.954 3.269,-29.386 1.64,-11.436 3.563,-21.718 5.099,-29.13 0.766,-3.706 1.411,-6.702 1.873,-8.767 0.216,-1.002 0.387,-1.797 0.513,-2.384 0.111,-0.547 0.162,-0.836 0.146,-0.84 -0.017,-0.003 -0.1,0.278 -0.244,0.817 -0.148,0.582 -0.349,1.37 -0.603,2.363 -0.52,2.053 -1.217,5.038 -2.027,8.738 -1.625,7.399 -3.605,17.684 -5.248,29.132 -1.632,11.447 -2.614,21.873 -3.127,29.431 -0.259,3.779 -0.427,6.84 -0.503,8.957 -0.035,1.024 -0.063,1.838 -0.083,2.437 C -0.018,-0.294 -0.017,0 0,0"
             style="fill:#263238;fill-opacity:1;fill-rule:nonzero;stroke:none"
             id="path388" /></g><g
           id="g390"
           transform="translate(422.4606,249.4421)"><path
             d="m 0,0 c 0.015,-0.01 -0.078,-0.172 -0.267,-0.472 -0.222,-0.343 -0.501,-0.773 -0.842,-1.299 -0.774,-1.183 -1.83,-2.795 -3.12,-4.763 -2.618,-4.03 -6.157,-9.649 -9.831,-15.993 -0.145,-0.25 -0.29,-0.499 -0.423,-0.731 l -0.239,-0.41 -0.201,0.428 c -0.754,1.61 -1.522,3.181 -2.69,4.327 -1.146,1.14 -2.711,1.831 -4.168,1.559 -1.464,-0.228 -2.618,-1.226 -3.439,-2.255 -0.834,-1.053 -1.358,-2.204 -1.716,-3.297 -0.707,-2.193 -1.119,-4.044 -1.641,-5.243 -0.242,-0.606 -0.487,-1.05 -0.654,-1.349 -0.182,-0.29 -0.285,-0.438 -0.299,-0.429 -0.039,0.023 0.343,0.631 0.776,1.845 0.463,1.206 0.816,3.042 1.49,5.283 0.341,1.116 0.868,2.331 1.725,3.439 0.843,1.085 2.056,2.178 3.685,2.453 1.627,0.314 3.359,-0.452 4.578,-1.66 1.254,-1.224 2.044,-2.853 2.801,-4.461 l -0.438,0.017 c 0.134,0.232 0.279,0.482 0.424,0.733 3.68,6.354 7.272,11.953 9.968,15.937 1.348,1.993 2.465,3.588 3.253,4.679 0.372,0.505 0.676,0.917 0.919,1.247 C -0.134,-0.134 -0.014,0.01 0,0"
             style="fill:#263238;fill-opacity:1;fill-rule:nonzero;stroke:none"
             id="path392" /></g><g
           id="g394"
           transform="translate(404.6324,230.9304)"><path
             d="m 0,0 c 0.015,-0.009 -0.056,-0.154 -0.202,-0.422 -0.18,-0.315 -0.399,-0.697 -0.661,-1.159 -0.634,-1.062 -1.483,-2.485 -2.513,-4.215 -1.089,-1.791 -2.367,-3.893 -3.78,-6.218 -0.718,-1.169 -1.469,-2.393 -2.247,-3.663 -0.396,-0.637 -0.798,-1.286 -1.206,-1.944 -0.121,-0.169 -0.264,-0.343 -0.475,-0.478 -0.206,-0.138 -0.517,-0.187 -0.762,-0.103 -0.504,0.163 -0.746,0.606 -0.952,0.909 -3.517,5.285 -6.134,10.389 -8.185,13.982 -1.013,1.806 -1.845,3.259 -2.431,4.257 -0.584,1 -0.906,1.554 -0.875,1.575 0.014,0.008 0.113,-0.118 0.291,-0.367 0.174,-0.251 0.436,-0.618 0.748,-1.106 0.638,-0.969 1.518,-2.399 2.57,-4.185 2.132,-3.552 4.799,-8.632 8.293,-13.879 0.219,-0.342 0.417,-0.631 0.687,-0.713 0.241,-0.088 0.48,0.097 0.688,0.394 0.405,0.648 0.803,1.286 1.196,1.914 0.786,1.264 1.545,2.483 2.271,3.648 1.446,2.302 2.756,4.386 3.87,6.162 1.086,1.695 1.981,3.09 2.647,4.132 0.296,0.442 0.54,0.808 0.741,1.11 C -0.113,-0.118 -0.015,0.009 0,0"
             style="fill:#263238;fill-opacity:1;fill-rule:nonzero;stroke:none"
             id="path396" /></g><g
           id="g398"
           transform="translate(472.4479,228.0309)"><path
             d="m 0,0 c 0.016,-0.008 -0.083,-0.232 -0.284,-0.653 -0.227,-0.461 -0.527,-1.07 -0.901,-1.828 -0.799,-1.579 -1.919,-3.881 -3.259,-6.745 -1.348,-2.86 -2.868,-6.306 -4.468,-10.167 -1.578,-3.87 -3.226,-8.161 -4.803,-12.718 -1.561,-4.566 -2.903,-8.963 -4.04,-12.986 -1.113,-4.029 -2.035,-7.68 -2.732,-10.764 -0.705,-3.083 -1.24,-5.587 -1.579,-7.323 -0.172,-0.829 -0.311,-1.492 -0.415,-1.995 -0.101,-0.455 -0.162,-0.693 -0.178,-0.69 -0.017,0.004 0.011,0.247 0.079,0.708 0.082,0.508 0.189,1.177 0.324,2.013 0.282,1.748 0.764,4.265 1.426,7.363 0.655,3.098 1.544,6.765 2.636,10.809 1.114,4.038 2.446,8.45 4.01,13.026 1.581,4.568 3.245,8.864 4.85,12.732 1.627,3.86 3.183,7.297 4.573,10.143 1.383,2.848 2.552,5.13 3.406,6.682 0.408,0.742 0.735,1.336 0.983,1.787 C -0.143,-0.201 -0.015,0.008 0,0"
             style="fill:#263238;fill-opacity:1;fill-rule:nonzero;stroke:none"
             id="path400" /></g><g
           id="g402"
           transform="translate(416.4215,103.7643)"><path
             d="m 0,0 c -0.001,-0.018 -0.265,-0.008 -0.765,0.026 -0.546,0.043 -1.273,0.101 -2.186,0.173 -0.95,0.074 -2.111,0.181 -3.453,0.348 -1.344,0.162 -2.878,0.317 -4.561,0.579 -3.376,0.461 -7.376,1.156 -11.788,2.07 -4.405,0.947 -9.219,2.131 -14.207,3.602 -4.983,1.494 -9.663,3.133 -13.87,4.747 -4.195,1.645 -7.925,3.249 -11.004,4.708 -1.554,0.699 -2.923,1.408 -4.137,2.007 -1.216,0.593 -2.245,1.138 -3.082,1.594 -0.803,0.439 -1.444,0.789 -1.925,1.05 -0.438,0.245 -0.663,0.381 -0.655,0.397 0.008,0.014 0.25,-0.092 0.702,-0.308 0.491,-0.241 1.145,-0.563 1.967,-0.967 0.848,-0.429 1.89,-0.949 3.115,-1.518 1.224,-0.573 2.601,-1.259 4.161,-1.937 3.092,-1.416 6.828,-2.981 11.022,-4.599 4.206,-1.587 8.877,-3.208 13.848,-4.699 4.974,-1.467 9.771,-2.662 14.161,-3.629 4.396,-0.938 8.38,-1.667 11.743,-2.17 C -9.237,1.188 -7.709,1.01 -6.371,0.822 -5.033,0.629 -3.877,0.495 -2.932,0.391 -2.023,0.28 -1.299,0.192 -0.756,0.126 -0.259,0.06 0.002,0.017 0,0"
             style="fill:#263238;fill-opacity:1;fill-rule:nonzero;stroke:none"
             id="path404" /></g><g
           id="g406"
           transform="translate(411.0055,101.6208)"><path
             d="m 0,0 c 0.003,-0.017 -0.171,-0.061 -0.504,-0.13 -0.39,-0.073 -0.872,-0.165 -1.462,-0.276 -1.27,-0.236 -3.117,-0.527 -5.406,-0.842 -4.576,-0.633 -10.936,-1.278 -17.984,-1.527 -7.052,-0.242 -13.442,-0.039 -18.051,0.275 -2.305,0.155 -4.168,0.317 -5.451,0.464 -0.596,0.071 -1.084,0.129 -1.477,0.175 -0.337,0.046 -0.514,0.078 -0.512,0.094 0.002,0.018 0.181,0.019 0.521,0.005 0.395,-0.021 0.886,-0.049 1.484,-0.082 1.287,-0.087 3.152,-0.195 5.455,-0.306 4.606,-0.224 10.98,-0.371 18.013,-0.129 7.031,0.248 13.379,0.836 17.958,1.379 2.29,0.27 4.143,0.507 5.421,0.684 0.595,0.074 1.082,0.136 1.474,0.185 C -0.182,0.006 -0.003,0.017 0,0"
             style="fill:#263238;fill-opacity:1;fill-rule:nonzero;stroke:none"
             id="path408" /></g><g
           id="g410"
           transform="translate(454.3492,156.6179)"><path
             d="m 0,0 c -0.016,0.004 0.034,0.252 0.145,0.72 0.126,0.511 0.295,1.189 0.506,2.037 0.462,1.818 1.109,4.362 1.903,7.483 1.606,6.318 3.739,15.07 6.362,24.671 1.322,4.8 2.675,9.347 3.985,13.457 1.333,4.104 2.61,7.776 3.788,10.819 0.563,1.531 1.139,2.89 1.626,4.091 0.481,1.203 0.928,2.227 1.307,3.056 0.362,0.797 0.651,1.433 0.87,1.912 0.204,0.436 0.319,0.66 0.334,0.653 0.016,-0.006 -0.068,-0.246 -0.242,-0.693 C 20.387,67.718 20.126,67.069 19.8,66.259 19.448,65.419 19.028,64.387 18.572,63.175 18.11,61.966 17.559,60.601 17.018,59.063 15.883,56.011 14.644,52.334 13.337,48.229 12.052,44.118 10.715,39.574 9.395,34.779 6.773,25.187 4.586,16.449 2.893,10.151 2.049,7.002 1.351,4.457 0.838,2.706 0.59,1.868 0.391,1.198 0.241,0.692 0.1,0.234 0.017,-0.005 0,0"
             style="fill:#263238;fill-opacity:1;fill-rule:nonzero;stroke:none"
             id="path412" /></g><g
           id="g414"
           transform="translate(326.4923,158.2595)"><path
             d="m 0,0 c -0.014,-0.011 -0.192,0.196 -0.521,0.603 -0.318,0.414 -0.832,0.993 -1.396,1.81 -1.183,1.595 -2.747,4.019 -4.368,7.182 -1.629,3.159 -3.231,7.094 -4.584,11.594 -1.356,4.5 -2.428,9.566 -3.188,14.93 -1.458,10.746 -1.697,20.559 -2.137,27.626 -0.198,3.537 -0.385,6.398 -0.533,8.373 -0.07,0.953 -0.125,1.711 -0.167,2.277 -0.034,0.52 -0.043,0.794 -0.026,0.796 0.017,10e-4 0.06,-0.269 0.126,-0.787 0.063,-0.518 0.163,-1.282 0.259,-2.268 0.208,-1.973 0.448,-4.832 0.691,-8.369 0.53,-7.068 0.825,-16.873 2.279,-27.579 0.756,-5.343 1.81,-10.386 3.134,-14.869 1.322,-4.482 2.88,-8.406 4.459,-11.567 C -4.399,6.587 -2.889,4.146 -1.759,2.523 -1.221,1.692 -0.734,1.097 -0.442,0.664 -0.14,0.239 0.013,0.011 0,0"
             style="fill:#263238;fill-opacity:1;fill-rule:nonzero;stroke:none"
             id="path416" /></g><g
           id="g418"
           transform="translate(321.839,180.277)"><path
             d="m 0,0 c 0.029,-0.146 -1.419,-0.461 -2.956,-1.373 -1.549,-0.896 -2.531,-2.004 -2.644,-1.908 -0.108,0.065 0.752,1.383 2.393,2.336 C -1.574,0.02 -0.004,0.126 0,0"
             style="fill:#263238;fill-opacity:1;fill-rule:nonzero;stroke:none"
             id="path420" /></g><g
           id="g422"
           transform="translate(320.9083,193.1208)"><path
             d="m 0,0 c 0.018,-0.15 -1.801,-0.31 -3.733,-1.344 -1.948,-1.007 -3.109,-2.416 -3.224,-2.315 -0.111,0.055 0.935,1.684 2.993,2.754 C -1.917,0.185 0.018,0.123 0,0"
             style="fill:#263238;fill-opacity:1;fill-rule:nonzero;stroke:none"
             id="path424" /></g><g
           id="g426"
           transform="translate(318.0988,204.862)"><path
             d="m 0,0 c 0.008,-0.149 -1.429,-0.224 -2.963,-1 -1.547,-0.753 -2.475,-1.853 -2.589,-1.756 -0.114,0.057 0.701,1.383 2.368,2.199 C -1.526,0.277 0.023,0.124 0,0"
             style="fill:#263238;fill-opacity:1;fill-rule:nonzero;stroke:none"
             id="path428" /></g><g
           id="g430"
           transform="translate(316.7321,216.9802)"><path
             d="m 0,0 c 0.019,-0.145 -1.251,-0.388 -2.693,-1.01 -1.448,-0.61 -2.501,-1.359 -2.593,-1.246 -0.088,0.094 0.874,1.057 2.399,1.701 C -1.368,0.1 -0.006,0.128 0,0"
             style="fill:#263238;fill-opacity:1;fill-rule:nonzero;stroke:none"
             id="path432" /></g><g
           id="g434"
           transform="translate(315.9449,226.7809)"><path
             d="m 0,0 c 0.019,-0.146 -1.269,-0.378 -2.7,-1.059 -1.439,-0.666 -2.44,-1.508 -2.54,-1.4 -0.096,0.083 0.804,1.141 2.329,1.85 C -1.392,0.109 -0.003,0.127 0,0"
             style="fill:#263238;fill-opacity:1;fill-rule:nonzero;stroke:none"
             id="path436" /></g><g
           id="g438"
           transform="translate(456.9205,171.5964)"><path
             d="M 0,0 C -0.118,-0.084 -0.77,0.794 -1.963,1.263 -3.145,1.76 -4.224,1.586 -4.25,1.729 -4.312,1.848 -3.128,2.281 -1.776,1.722 -0.418,1.179 0.128,0.041 0,0"
             style="fill:#263238;fill-opacity:1;fill-rule:nonzero;stroke:none"
             id="path440" /></g><g
           id="g442"
           transform="translate(460.6422,181.612)"><path
             d="m 0,0 c -0.133,-0.061 -0.649,1.433 -2.203,2.408 -1.529,1.016 -3.103,0.873 -3.102,1.02 -0.008,0.056 0.371,0.187 1.013,0.168 C -3.655,3.579 -2.765,3.359 -1.935,2.825 -1.106,2.288 -0.54,1.566 -0.264,0.992 0.02,0.416 0.056,0.016 0,0"
             style="fill:#263238;fill-opacity:1;fill-rule:nonzero;stroke:none"
             id="path444" /></g><g
           id="g446"
           transform="translate(463.4303,192.6149)"><path
             d="m 0,0 c -0.118,-0.087 -0.922,1.147 -2.528,1.762 -1.591,0.653 -3.023,0.304 -3.048,0.449 -0.018,0.057 0.315,0.233 0.914,0.317 0.594,0.087 1.453,0.035 2.316,-0.305 C -1.483,1.879 -0.821,1.328 -0.448,0.858 -0.07,0.388 0.052,0.029 0,0"
             style="fill:#263238;fill-opacity:1;fill-rule:nonzero;stroke:none"
             id="path448" /></g><g
           id="g450"
           transform="translate(466.7155,203.1911)"><path
             d="m 0,0 c -0.129,-0.066 -0.649,0.914 -1.803,1.505 -1.138,0.62 -2.242,0.497 -2.259,0.641 -0.011,0.059 0.255,0.183 0.724,0.209 C -2.873,2.384 -2.21,2.279 -1.571,1.942 -0.935,1.604 -0.474,1.117 -0.235,0.717 0.008,0.315 0.056,0.024 0,0"
             style="fill:#263238;fill-opacity:1;fill-rule:nonzero;stroke:none"
             id="path452" /></g><g
           id="g454"
           transform="translate(470.5592,212.9001)"><path
             d="m 0,0 c -0.126,-0.064 -0.664,1.116 -2.032,1.725 -1.351,0.649 -2.599,0.295 -2.631,0.432 -0.021,0.056 0.263,0.239 0.793,0.328 0.525,0.091 1.296,0.036 2.046,-0.31 0.749,-0.349 1.29,-0.9 1.56,-1.359 C 0.013,0.355 0.056,0.021 0,0"
             style="fill:#263238;fill-opacity:1;fill-rule:nonzero;stroke:none"
             id="path456" /></g><g
           id="g458"
           transform="translate(407.6959,226.7809)"><path
             d="m 0,0 c 0.015,-0.009 -0.06,-0.169 -0.215,-0.464 -0.187,-0.342 -0.42,-0.764 -0.703,-1.278 -0.622,-1.104 -1.539,-2.691 -2.698,-4.636 -1.159,-1.945 -2.559,-4.251 -4.163,-6.78 -0.804,-1.264 -1.659,-2.584 -2.575,-3.935 -0.924,-1.346 -1.875,-2.742 -3.026,-4.069 -0.297,-0.33 -0.577,-0.652 -1.026,-0.918 -0.11,-0.076 -0.267,-0.1 -0.438,-0.086 -0.158,0.01 -0.254,0.078 -0.382,0.12 -0.208,0.116 -0.405,0.24 -0.568,0.385 -0.676,0.562 -1.219,1.198 -1.75,1.825 -1.048,1.264 -1.972,2.54 -2.835,3.767 -1.721,2.457 -3.181,4.726 -4.388,6.643 -1.204,1.919 -2.149,3.489 -2.789,4.582 -0.291,0.511 -0.529,0.93 -0.721,1.268 -0.16,0.293 -0.236,0.452 -0.221,0.461 0.015,0.009 0.119,-0.133 0.306,-0.409 0.213,-0.326 0.478,-0.728 0.8,-1.218 0.729,-1.122 1.717,-2.643 2.92,-4.494 1.243,-1.89 2.732,-4.136 4.465,-6.569 0.87,-1.214 1.798,-2.478 2.835,-3.718 0.522,-0.614 1.067,-1.241 1.687,-1.753 0.3,-0.241 0.68,-0.508 0.865,-0.358 0.282,0.169 0.599,0.488 0.871,0.803 1.113,1.282 2.071,2.678 2.994,4.012 0.918,1.34 1.778,2.652 2.591,3.907 1.623,2.512 3.052,4.796 4.249,6.717 1.166,1.876 2.124,3.416 2.831,4.551 0.315,0.496 0.574,0.902 0.783,1.231 C -0.117,-0.135 -0.015,0.008 0,0"
             style="fill:#263238;fill-opacity:1;fill-rule:nonzero;stroke:none"
             id="path460" /></g><g
           id="g462"
           transform="translate(386.3912,212.5524)"><path
             d="M 0,0 C -0.058,-0.008 -0.176,0.336 -0.133,0.913 -0.095,1.486 0.158,2.278 0.708,2.977 1.26,3.674 1.973,4.104 2.521,4.273 3.072,4.449 3.434,4.414 3.439,4.356 3.477,4.219 2.087,3.963 1.097,2.67 0.069,1.407 0.142,-0.004 0,0"
             style="fill:#263238;fill-opacity:1;fill-rule:nonzero;stroke:none"
             id="path464" /></g><g
           id="g466"
           transform="translate(392.9606,204.6677)"><path
             d="m 0,0 c -0.131,-0.019 -0.471,1.74 -0.482,3.94 -0.02,2.201 0.295,3.963 0.426,3.947 C 0.086,7.871 -0.006,6.11 0.013,3.943 0.024,1.777 0.141,0.018 0,0"
             style="fill:#263238;fill-opacity:1;fill-rule:nonzero;stroke:none"
             id="path468" /></g><g
           id="g470"
           transform="translate(400.4186,214.7136)"><path
             d="m 0,0 c -0.139,-0.039 -0.449,1.067 -1.488,1.913 -1.018,0.873 -2.161,0.983 -2.148,1.126 0.001,0.062 0.297,0.127 0.775,0.052 C -2.387,3.019 -1.742,2.77 -1.171,2.293 -0.602,1.815 -0.242,1.226 -0.087,0.771 0.072,0.315 0.061,0.012 0,0"
             style="fill:#263238;fill-opacity:1;fill-rule:nonzero;stroke:none"
             id="path472" /></g><g
           id="g474"
           transform="translate(405.2916,222.8649)"><path
             d="M 0,0 C -0.143,-0.021 -0.313,1.104 -1.233,2.063 -2.128,3.045 -3.239,3.291 -3.209,3.432 -3.2,3.492 -2.9,3.521 -2.439,3.391 -1.98,3.263 -1.376,2.939 -0.871,2.401 -0.368,1.861 -0.087,1.236 0.011,0.771 0.111,0.301 0.062,0.004 0,0"
             style="fill:#263238;fill-opacity:1;fill-rule:nonzero;stroke:none"
             id="path476" /></g><g
           id="g478"
           transform="translate(381.4205,220.0153)"><path
             d="m 0,0 c -0.057,-0.013 -0.216,0.375 -0.24,1.046 -0.029,0.666 0.13,1.609 0.613,2.52 0.486,0.91 1.183,1.567 1.751,1.915 0.57,0.353 0.981,0.438 1.002,0.383 C 3.201,5.737 1.696,5.046 0.811,3.333 -0.117,1.644 0.147,0.008 0,0"
             style="fill:#263238;fill-opacity:1;fill-rule:nonzero;stroke:none"
             id="path480" /></g><g
           id="g482"><g
             id="g484" /><g
             id="g496"><g
               clip-path="url(#clipPath488)"
               opacity="0.399994"
               id="g494"><g
                 transform="translate(367.3712,252.2468)"
                 id="g492"><path
                   d="m 0,0 c 2.143,-8.218 5.719,-21.603 9.592,-32.077 0.177,-0.48 0.367,-0.977 0.738,-1.328 0.983,-0.936 2.673,-0.362 3.6,0.63 0.879,0.94 1.392,2.156 2.11,3.223 0.717,1.069 1.78,2.055 3.066,2.099 1.049,0.035 2.029,-0.578 2.722,-1.367 0.692,-0.789 1.154,-1.748 1.667,-2.663 0.275,-0.494 0.63,-1.022 1.182,-1.136 0.553,-0.113 1.162,0.388 0.845,0.994 l -3.425,8.878 c 0,0 -1.57,6.513 -7.015,5.5 C 8.995,-18.38 11.754,-28.375 11.754,-28.375 11.754,-28.375 -0.091,0.349 0,0"
                   style="fill:#000000;fill-opacity:1;fill-rule:nonzero;stroke:none"
                   id="path490" /></g></g></g></g><g
           id="g498"
           transform="translate(393.0592,220.2565)"><path
             d="m 0,0 c -0.016,-0.006 -0.116,0.194 -0.294,0.582 -0.176,0.389 -0.424,0.966 -0.732,1.714 -0.618,1.558 -1.475,3.72 -2.524,6.367 -0.27,0.669 -0.555,1.369 -0.874,2.086 -0.317,0.725 -0.669,1.436 -1.246,2.023 -1.138,1.158 -2.911,1.956 -4.741,1.767 -0.885,-0.121 -1.825,-0.481 -2.498,-1.119 -0.676,-0.652 -1.026,-1.614 -1.352,-2.588 -0.316,-0.937 -0.308,-1.99 -0.206,-3.039 0.104,-1.053 0.314,-2.115 0.564,-3.183 0.096,-0.39 0.192,-0.779 0.281,-1.139 l -0.474,-0.143 c -1.404,4.031 -3.015,7.761 -4.487,11.14 -1.48,3.377 -2.826,6.406 -3.886,8.977 -1.064,2.569 -1.84,4.679 -2.31,6.157 -0.249,0.734 -0.404,1.316 -0.513,1.709 -0.108,0.393 -0.156,0.601 -0.14,0.606 0.016,0.004 0.096,-0.195 0.233,-0.578 0.14,-0.382 0.323,-0.953 0.598,-1.675 0.524,-1.455 1.347,-3.539 2.449,-6.085 1.099,-2.549 2.476,-5.559 3.982,-8.929 1.497,-3.372 3.127,-7.104 4.542,-11.16 l -0.474,-0.142 c -0.089,0.363 -0.187,0.756 -0.284,1.149 -0.253,1.08 -0.467,2.161 -0.572,3.248 -0.102,1.078 -0.116,2.197 0.237,3.241 0.334,0.979 0.698,2.016 1.483,2.774 0.795,0.734 1.783,1.098 2.777,1.233 2.009,0.188 3.872,-0.68 5.088,-1.937 0.617,-0.638 0.996,-1.432 1.299,-2.153 0.313,-0.73 0.589,-1.436 0.85,-2.112 0.989,-2.672 1.795,-4.853 2.377,-6.425 0.267,-0.72 0.481,-1.3 0.646,-1.746 C -0.054,0.22 0.016,0.007 0,0"
             style="fill:#263238;fill-opacity:1;fill-rule:nonzero;stroke:none"
             id="path500" /></g><g
           id="g502"><g
             id="g504" /><g
             id="g516"><g
               clip-path="url(#clipPath508)"
               opacity="0.399994"
               id="g514"><g
                 transform="translate(393.5446,220.5016)"
                 id="g512"><path
                   d="m 0,0 c -0.207,-0.142 -0.055,-0.509 0.19,-0.562 0.246,-0.055 0.488,0.09 0.686,0.244 C 2.15,0.667 2.861,2.189 3.758,3.526 4.655,4.864 5.969,6.146 7.579,6.152 9.29,6.16 10.662,4.727 11.507,3.238 12.352,1.751 12.929,0.065 14.146,-1.137 20.271,7.844 25.167,17.661 28.654,27.956 26.646,26.563 25.33,24.403 24.073,22.308 20.826,16.892 17.58,11.477 14.333,6.062 13.65,7.642 12.845,9.215 11.589,10.393 10.332,11.57 8.543,12.298 6.866,11.904 4.971,11.46 3.658,9.746 2.731,8.032 1.375,5.526 0.488,2.767 0.13,-0.061"
                   style="fill:#000000;fill-opacity:1;fill-rule:nonzero;stroke:none"
                   id="path510" /></g></g></g></g><g
           id="g518"
           transform="translate(521.2506,140.3903)"><path
             d="m 0,0 c -0.031,-0.016 -0.261,0.374 -0.649,1.093 -0.393,0.718 -0.928,1.772 -1.56,3.09 -1.268,2.633 -2.88,6.343 -4.387,10.544 -1.504,4.204 -2.612,8.093 -3.305,10.933 -0.348,1.42 -0.605,2.574 -0.757,3.377 -0.155,0.803 -0.226,1.25 -0.192,1.257 0.034,0.008 0.167,-0.425 0.38,-1.213 0.241,-0.881 0.544,-1.998 0.907,-3.332 0.779,-2.81 1.936,-6.668 3.433,-10.855 1.502,-4.185 3.057,-7.9 4.239,-10.565 0.566,-1.261 1.04,-2.317 1.414,-3.15 C -0.142,0.435 0.03,0.016 0,0"
             style="fill:#263238;fill-opacity:1;fill-rule:nonzero;stroke:none"
             id="path520" /></g><g
           id="g522"
           transform="translate(511.7428,142.2702)"><path
             d="m 0,0 c -0.033,-0.009 -0.174,0.38 -0.401,1.094 -0.232,0.713 -0.522,1.757 -0.84,3.058 -0.639,2.601 -1.315,6.253 -1.64,10.333 -0.318,4.082 -0.224,7.795 -0.001,10.464 0.111,1.335 0.234,2.412 0.351,3.152 0.112,0.741 0.19,1.147 0.224,1.143 C -2.273,29.239 -2.286,28.825 -2.34,28.08 -2.397,27.336 -2.467,26.258 -2.532,24.927 -2.665,22.265 -2.703,18.578 -2.387,14.524 -2.063,10.472 -1.448,6.837 -0.899,4.229 -0.626,2.924 -0.389,1.87 -0.215,1.145 -0.046,0.417 0.033,0.01 0,0"
             style="fill:#263238;fill-opacity:1;fill-rule:nonzero;stroke:none"
             id="path524" /></g><g
           id="g526"
           transform="translate(542.2994,229.8102)"><path
             d="M 0,0 C 0.01,0.021 0.25,-0.07 0.766,-0.293 L 0.915,-0.358 0.756,-0.416 c -2.167,-0.783 -9.779,-3.191 -19.086,-4.882 -5.581,-1.028 -10.688,-1.625 -14.391,-1.922 -1.852,-0.15 -3.352,-0.241 -4.391,-0.275 -1.038,-0.038 -1.613,-0.043 -1.615,-0.009 -0.002,0.034 0.569,0.105 1.602,0.201 1.115,0.111 2.589,0.256 4.371,0.433 3.688,0.385 8.771,1.035 14.334,2.059 9.276,1.686 16.906,3.938 19.137,4.521 L 0.708,-0.412 C 0.211,-0.151 -0.01,-0.021 0,0"
             style="fill:#263238;fill-opacity:1;fill-rule:nonzero;stroke:none"
             id="path528" /></g><g
           id="g530"
           transform="translate(533.6862,234.1462)"><path
             d="M 0,0 C -0.014,0.015 0.099,0.164 0.408,0.252 0.712,0.346 1.216,0.292 1.688,-0.031 2.136,-0.343 2.651,-0.969 2.515,-1.812 2.441,-2.217 2.169,-2.604 1.782,-2.817 1.399,-3.034 0.944,-3.112 0.503,-3.053 c -0.441,0.061 -0.863,0.243 -1.18,0.548 -0.317,0.308 -0.479,0.747 -0.469,1.147 0.029,0.83 0.592,1.373 1.068,1.643 C 0.425,0.556 0.913,0.576 1.214,0.491 1.52,0.411 1.643,0.276 1.631,0.259 1.619,0.172 0.948,0.545 0.104,-0.016 c -0.389,-0.261 -0.803,-0.752 -0.793,-1.342 -0.018,-0.596 0.543,-1.123 1.255,-1.203 0.703,-0.102 1.395,0.267 1.502,0.844 0.124,0.562 -0.23,1.113 -0.589,1.405 C 1.106,-0.01 0.707,0.087 0.439,0.062 0.169,0.043 0.022,-0.042 0,0"
             style="fill:#263238;fill-opacity:1;fill-rule:nonzero;stroke:none"
             id="path532" /></g><g
           id="g534"
           transform="translate(385.0875,213.0427)"><path
             d="m 0,0 c 0.011,-0.014 -0.178,-0.178 -0.547,-0.478 -0.378,-0.288 -0.898,-0.764 -1.65,-1.267 -1.458,-1.069 -3.698,-2.456 -6.653,-3.783 -2.95,-1.335 -6.667,-2.503 -10.916,-3.106 -2.125,-0.271 -4.377,-0.439 -6.712,-0.361 -2.333,0.083 -4.741,0.37 -7.164,0.888 -4.837,1.091 -9.199,2.876 -13.303,3.975 -2.047,0.568 -4.026,0.973 -5.897,1.163 -1.874,0.176 -3.636,0.145 -5.223,-0.052 -3.182,-0.387 -5.611,-1.474 -7.075,-2.492 -1.481,-1.011 -2.121,-1.799 -2.166,-1.753 0,0 0.587,0.834 2.056,1.912 1.451,1.082 3.908,2.243 7.14,2.681 1.61,0.222 3.401,0.275 5.305,0.113 1.905,-0.175 3.914,-0.571 5.979,-1.131 4.144,-1.085 8.513,-2.855 13.292,-3.932 2.391,-0.511 4.767,-0.798 7.072,-0.887 2.306,-0.084 4.532,0.073 6.635,0.328 4.205,0.572 7.895,1.692 10.837,2.975 2.948,1.275 5.199,2.605 6.683,3.621 0.765,0.476 1.302,0.926 1.699,1.188 C -0.221,-0.125 -0.011,0.013 0,0"
             style="fill:#fafafa;fill-opacity:1;fill-rule:nonzero;stroke:none"
             id="path536" /></g><g
           id="g538"
           transform="translate(448.6315,171.8591)"><path
             d="m 0,0 c -0.005,-0.008 -0.107,0.04 -0.304,0.139 -0.217,0.113 -0.503,0.261 -0.864,0.45 -0.381,0.193 -0.874,0.39 -1.442,0.647 -0.591,0.204 -1.255,0.491 -2.042,0.692 -3.1,0.936 -7.878,1.414 -13.622,0.496 -2.874,-0.423 -5.966,-1.196 -9.266,-2.105 -3.301,-0.901 -6.817,-1.947 -10.606,-2.718 -3.779,-0.784 -7.88,-1.194 -12.083,-0.738 -4.207,0.392 -8.435,1.578 -12.655,2.978 -4.222,1.422 -8.264,3.009 -12.234,4.333 -3.959,1.351 -7.876,2.352 -11.677,2.864 -7.617,1.044 -14.61,0.265 -20.238,-1.101 -2.822,-0.694 -5.304,-1.57 -7.455,-2.406 -1.057,-0.462 -2.053,-0.869 -2.943,-1.3 -0.881,-0.448 -1.705,-0.823 -2.414,-1.219 -0.706,-0.395 -1.336,-0.747 -1.887,-1.055 -0.526,-0.325 -0.976,-0.603 -1.349,-0.832 -0.348,-0.213 -0.623,-0.381 -0.832,-0.509 -0.19,-0.112 -0.289,-0.166 -0.294,-0.159 -0.004,0.007 0.085,0.075 0.266,0.201 0.202,0.139 0.469,0.321 0.806,0.551 0.359,0.236 0.794,0.542 1.326,0.874 0.547,0.32 1.171,0.687 1.871,1.098 0.705,0.411 1.525,0.8 2.404,1.263 0.888,0.446 1.883,0.868 2.941,1.343 2.152,0.865 4.64,1.771 7.474,2.49 5.654,1.418 12.697,2.242 20.385,1.214 3.837,-0.504 7.795,-1.506 11.77,-2.857 3.987,-1.322 8.031,-2.907 12.237,-4.323 4.204,-1.394 8.395,-2.573 12.547,-2.964 4.147,-0.456 8.187,-0.064 11.944,0.702 3.764,0.754 7.278,1.781 10.589,2.667 3.307,0.892 6.423,1.651 9.322,2.055 5.79,0.88 10.619,0.344 13.728,-0.658 0.789,-0.217 1.454,-0.52 2.043,-0.741 C -1.987,1.099 -1.498,0.887 -1.122,0.678 -0.77,0.471 -0.491,0.308 -0.278,0.183 -0.09,0.069 0.004,0.007 0,0"
             style="fill:#fafafa;fill-opacity:1;fill-rule:nonzero;stroke:none"
             id="path540" /></g><g
           id="g542"
           transform="translate(398.2418,213.7497)"><path
             d="m 0,0 c 0.018,0.059 0.886,-0.336 2.557,-0.561 1.661,-0.241 4.135,-0.193 7.052,0.566 2.932,0.712 6.203,2.234 9.934,3.715 1.87,0.725 3.886,1.411 6.054,1.804 2.164,0.381 4.45,0.537 6.774,0.39 4.659,-0.268 8.978,-1.517 12.689,-3.046 3.717,-1.54 6.874,-3.331 9.462,-4.906 2.588,-1.583 4.619,-2.96 6.019,-3.913 0.662,-0.461 1.194,-0.832 1.601,-1.115 0.362,-0.26 0.547,-0.404 0.539,-0.417 -0.01,-0.015 -0.214,0.1 -0.595,0.334 -0.419,0.263 -0.968,0.608 -1.651,1.037 -1.433,0.903 -3.49,2.234 -6.093,3.773 -2.604,1.532 -5.761,3.281 -9.456,4.784 C 41.2,3.938 36.931,5.156 32.343,5.42 30.055,5.563 27.809,5.413 25.684,5.046 23.558,4.668 21.57,4.003 19.707,3.293 15.992,1.848 12.677,0.344 9.693,-0.336 6.728,-1.061 4.203,-1.056 2.527,-0.751 0.841,-0.464 0,0 0,0"
             style="fill:#fafafa;fill-opacity:1;fill-rule:nonzero;stroke:none"
             id="path544" /></g><g
           id="g546"
           transform="translate(456.6871,238.8337)"><path
             d="m 0,0 c 0.008,-0.033 -0.497,-0.186 -1.421,-0.433 -0.461,-0.128 -1.028,-0.271 -1.695,-0.402 -0.666,-0.134 -1.42,-0.311 -2.268,-0.432 -1.686,-0.293 -3.715,-0.516 -5.975,-0.643 -2.262,-0.1 -4.756,-0.086 -7.363,0.125 -2.605,0.231 -5.066,0.639 -7.279,1.119 -2.207,0.507 -4.169,1.07 -5.782,1.645 -0.815,0.26 -1.529,0.563 -2.162,0.808 -0.635,0.24 -1.17,0.478 -1.603,0.683 -0.868,0.399 -1.341,0.634 -1.327,0.665 0.015,0.031 0.514,-0.144 1.401,-0.488 0.443,-0.176 0.986,-0.386 1.627,-0.601 0.64,-0.22 1.358,-0.497 2.175,-0.735 1.616,-0.528 3.573,-1.052 5.768,-1.531 2.201,-0.451 4.641,-0.842 7.224,-1.071 2.584,-0.21 5.055,-0.237 7.3,-0.163 2.243,0.1 4.261,0.287 5.943,0.534 0.846,0.097 1.6,0.249 2.268,0.358 0.668,0.103 1.239,0.219 1.705,0.318 C -0.53,-0.056 -0.009,0.033 0,0"
             style="fill:#fafafa;fill-opacity:1;fill-rule:nonzero;stroke:none"
             id="path548" /></g><g
           id="g550"
           transform="translate(315.858,232.4069)"><path
             d="m 0,0 c -0.01,0.014 0.14,0.146 0.436,0.387 0.297,0.238 0.734,0.592 1.312,1.026 1.149,0.879 2.838,2.118 4.988,3.562 4.287,2.866 10.508,6.597 18.103,8.938 7.599,2.344 14.98,2.416 20.065,1.4 2.552,-0.487 4.561,-1.135 5.901,-1.688 0.681,-0.248 1.178,-0.519 1.527,-0.671 0.344,-0.164 0.521,-0.258 0.514,-0.273 -0.019,-0.042 -0.754,0.276 -2.109,0.764 -1.353,0.493 -3.36,1.085 -5.894,1.523 -5.051,0.917 -12.336,0.79 -19.859,-1.529 C 17.461,11.121 11.252,7.465 6.928,4.682 4.761,3.28 3.044,2.087 1.862,1.258 1.304,0.869 0.852,0.555 0.496,0.307 0.181,0.093 0.01,-0.014 0,0"
             style="fill:#fafafa;fill-opacity:1;fill-rule:nonzero;stroke:none"
             id="path552" /></g><g
           id="g554"
           transform="translate(441.7203,127.5358)"><path
             d="m 0,0 c 0.002,-0.008 -0.093,-0.034 -0.28,-0.077 -0.216,-0.047 -0.492,-0.107 -0.838,-0.182 -0.367,-0.09 -0.828,-0.161 -1.378,-0.208 -0.276,-0.029 -0.571,-0.061 -0.886,-0.095 -0.319,-0.008 -0.657,-0.018 -1.014,-0.027 -2.875,-0.122 -7.015,0.621 -11.878,2.186 -2.441,0.76 -5.08,1.692 -7.95,2.544 -2.869,0.851 -6.003,1.506 -9.349,1.813 -6.704,0.641 -14.128,-0.166 -21.77,-1.56 C -63,3.015 -70.237,1.276 -76.964,0.476 -83.675,-0.352 -89.827,-0.41 -94.898,0.359 c -5.09,0.686 -9.01,2.231 -11.564,3.494 -0.634,0.333 -1.202,0.618 -1.683,0.885 -0.457,0.29 -0.848,0.539 -1.175,0.748 -0.296,0.194 -0.533,0.348 -0.717,0.468 -0.16,0.108 -0.239,0.166 -0.234,0.173 0.004,0.008 0.093,-0.037 0.262,-0.131 0.191,-0.109 0.435,-0.249 0.741,-0.425 0.333,-0.196 0.731,-0.43 1.195,-0.705 0.497,-0.246 1.062,-0.526 1.696,-0.84 2.566,-1.203 6.469,-2.683 11.527,-3.319 5.04,-0.72 11.15,-0.627 17.829,0.222 6.69,0.821 13.914,2.57 21.59,3.952 7.66,1.398 15.135,2.2 21.901,1.528 3.375,-0.321 6.545,-1.001 9.424,-1.875 2.88,-0.872 5.51,-1.823 7.937,-2.603 4.836,-1.602 8.921,-2.388 11.772,-2.327 0.354,0.001 0.689,0.002 1.005,0.004 0.314,0.026 0.607,0.049 0.881,0.072 0.548,0.031 1.008,0.086 1.376,0.16 0.349,0.055 0.626,0.098 0.844,0.132 C -0.101,-0.001 -0.002,0.009 0,0"
             style="fill:#fafafa;fill-opacity:1;fill-rule:nonzero;stroke:none"
             id="path556" /></g><g
           id="g558"><g
             id="g560" /><g
             id="g572"><g
               clip-path="url(#clipPath564)"
               opacity="0.300003"
               id="g570"><g
                 transform="translate(353.6163,120.6472)"
                 id="g568"><path
                   d="m 0,0 c 4.532,-11.307 13.303,-19.341 25.371,-21.001 12.068,-1.66 24.278,1.104 36.032,4.301 C 40.031,-13.711 21.128,-10.749 0,0"
                   style="fill:#000000;fill-opacity:1;fill-rule:nonzero;stroke:none"
                   id="path566" /></g></g></g></g><g
           id="g574"
           transform="translate(444.7819,89.5505)"><path
             d="M 0,0 C -0.004,-0.008 -0.104,0.029 -0.296,0.108 -0.511,0.2 -0.79,0.319 -1.142,0.47 c -0.769,0.342 -1.853,0.822 -3.235,1.435 -2.811,1.236 -6.84,3.133 -11.874,5.315 -2.525,1.06 -5.338,2.14 -8.469,2.865 -3.124,0.742 -6.589,0.992 -10.162,0.473 -1.783,-0.26 -3.59,-0.673 -5.397,-1.225 -1.804,-0.568 -3.61,-1.262 -5.414,-2.049 -3.613,-1.573 -7.203,-3.536 -10.897,-5.515 -3.698,-1.982 -7.384,-3.815 -11.119,-5.175 -3.728,-1.354 -7.521,-2.232 -11.193,-2.28 -3.677,-0.104 -7.131,0.771 -10.132,1.988 -3.018,1.215 -5.636,2.733 -8.027,4.083 -2.387,1.36 -4.537,2.603 -6.496,3.553 -1.961,0.937 -3.687,1.684 -5.161,2.102 -0.723,0.258 -1.391,0.388 -1.964,0.528 -0.57,0.156 -1.063,0.23 -1.463,0.284 -0.377,0.059 -0.677,0.107 -0.908,0.144 -0.204,0.035 -0.309,0.058 -0.308,0.066 0.001,0.008 0.107,0.003 0.313,-0.016 0.233,-0.025 0.536,-0.056 0.917,-0.096 0.404,-0.038 0.903,-0.096 1.48,-0.237 0.579,-0.127 1.256,-0.243 1.988,-0.488 1.495,-0.393 3.243,-1.12 5.227,-2.038 1.982,-0.931 4.15,-2.158 6.547,-3.498 2.4,-1.329 5.019,-2.822 8.008,-4.005 2.976,-1.187 6.359,-2.028 9.971,-1.913 3.606,0.059 7.344,0.932 11.035,2.279 3.698,1.353 7.361,3.179 11.051,5.155 3.692,1.979 7.295,3.945 10.936,5.524 1.82,0.79 3.644,1.486 5.469,2.056 1.831,0.555 3.663,0.968 5.475,1.226 3.629,0.514 7.163,0.243 10.317,-0.526 3.165,-0.751 5.988,-1.858 8.514,-2.943 5.031,-2.23 9.027,-4.17 11.817,-5.462 C -2.931,1.432 -1.86,0.922 -1.101,0.561 -0.757,0.392 -0.484,0.258 -0.274,0.154 -0.09,0.06 0.004,0.008 0,0"
             style="fill:#fafafa;fill-opacity:1;fill-rule:nonzero;stroke:none"
             id="path576" /></g></g></g></g></svg>
