<?xml version="1.0" standalone="no"?>
<!DOCTYPE svg PUBLIC "-//W3C//DTD SVG 20010904//EN"
 "http://www.w3.org/TR/2001/REC-SVG-20010904/DTD/svg10.dtd">
<svg version="1.0" xmlns="http://www.w3.org/2000/svg"
 width="1080.000000pt" height="1080.000000pt" viewBox="0 0 1080.000000 1080.000000"
 preserveAspectRatio="xMidYMid meet">
<metadata>
Created by potrace 1.11, written by Peter Selinger 2001-2013
</metadata>
<g transform="translate(0.000000,1080.000000) scale(0.100000,-0.100000)"
fill="#000000" stroke="none">
<path d="M5127 10684 c-1 -2 -47 -6 -102 -9 -55 -3 -111 -8 -125 -10 -14 -2
-58 -7 -98 -10 -41 -4 -82 -8 -91 -10 -10 -2 -42 -6 -71 -10 -29 -4 -60 -8
-69 -10 -9 -1 -36 -6 -61 -10 -25 -4 -54 -9 -65 -11 -11 -2 -32 -6 -47 -9 -15
-3 -78 -16 -140 -30 -62 -14 -124 -28 -137 -31 -14 -3 -28 -7 -31 -9 -4 -2
-20 -6 -36 -9 -30 -6 -279 -79 -324 -95 -14 -5 -65 -24 -115 -41 -49 -17 -99
-35 -110 -40 -11 -5 -76 -32 -145 -60 -1023 -421 -1939 -1221 -2517 -2195
-167 -282 -324 -619 -439 -943 -61 -171 -148 -481 -178 -632 -3 -14 -12 -60
-20 -102 -17 -86 -33 -181 -41 -248 -3 -25 -7 -54 -9 -65 -2 -11 -7 -51 -11
-90 -4 -38 -9 -83 -11 -100 -25 -221 -25 -905 1 -1005 2 -8 7 -50 10 -92 3
-42 7 -85 9 -95 5 -24 14 -88 22 -143 3 -25 18 -110 34 -190 204 -1029 696
-1953 1435 -2696 231 -232 359 -344 592 -520 228 -171 590 -394 818 -504 128
-61 256 -120 260 -120 3 0 24 -8 48 -19 226 -99 628 -228 857 -275 236 -49
325 -65 375 -71 33 -4 69 -9 80 -12 11 -2 36 -6 55 -8 19 -2 60 -7 90 -10 57
-7 74 -8 245 -21 187 -14 725 -8 822 10 10 2 54 7 98 12 44 4 82 8 85 9 3 0
32 4 65 9 33 4 96 14 140 21 44 8 95 17 113 20 72 12 284 61 372 86 25 7 50
13 55 14 81 18 348 108 535 182 270 107 651 300 850 432 30 20 63 41 73 46
127 73 462 329 652 501 108 97 286 272 356 350 108 120 184 208 259 304 28 36
56 72 63 80 82 100 259 365 367 550 63 108 250 470 250 484 0 2 13 33 29 68
60 131 163 412 216 591 l14 48 -617 -3 c-615 -3 -617 -3 -687 -27 -205 -68
-329 -177 -469 -414 -147 -249 -270 -420 -447 -621 -110 -126 -284 -298 -379
-376 -30 -25 -59 -50 -65 -56 -5 -7 -68 -55 -140 -109 -332 -248 -706 -443
-1095 -570 -80 -26 -152 -49 -160 -50 -8 -2 -60 -15 -115 -29 -135 -34 -302
-64 -440 -81 -27 -3 -63 -8 -80 -10 -165 -22 -629 -22 -775 0 -14 2 -50 7 -80
10 -116 13 -301 47 -440 81 -129 32 -382 109 -435 133 -11 5 -67 28 -125 52
-197 80 -444 212 -625 332 -82 54 -263 184 -275 197 -3 3 -30 25 -60 50 -30
25 -75 63 -100 84 -62 55 -331 325 -355 357 -16 22 -88 111 -170 211 -7 9 -45
62 -85 118 -293 420 -510 927 -610 1430 -28 141 -33 172 -46 275 -3 28 -8 58
-10 67 -24 130 -24 655 0 808 3 14 7 50 10 80 8 68 25 175 31 192 2 7 7 30 10
51 3 22 19 96 35 165 113 473 323 933 609 1332 42 58 83 114 92 125 9 11 52
63 95 115 98 120 330 352 454 457 203 171 443 334 665 453 112 59 124 65 180
90 28 13 73 33 100 45 67 31 177 75 186 75 3 0 24 8 45 17 22 9 41 17 44 18 3
1 32 10 65 20 33 10 65 20 70 21 6 2 42 12 80 24 82 25 79 24 175 45 158 35
248 52 320 60 25 3 61 7 80 10 235 31 609 36 823 10 18 -2 57 -6 87 -10 653
-72 1302 -336 1865 -757 452 -339 863 -842 1119 -1371 89 -184 216 -514 241
-627 2 -8 11 -42 19 -75 9 -33 24 -99 35 -146 l18 -87 -933 0 -934 0 0 596 c0
398 -4 610 -11 636 -21 77 -77 137 -152 164 -33 11 -99 14 -298 14 -233 0
-260 -1 -300 -19 -63 -28 -104 -66 -130 -121 l-23 -47 -1 -610 0 -610 -950 -2
c-523 -1 -957 0 -965 3 -13 3 -15 78 -14 596 0 453 -3 604 -13 638 -17 62 -63
114 -128 145 l-55 27 -262 0 c-241 0 -267 -1 -308 -20 -53 -23 -81 -48 -118
-105 l-27 -42 -3 -610 c-1 -335 -4 -615 -6 -621 -3 -9 -140 -12 -498 -11 -364
0 -508 -4 -550 -13 -118 -27 -229 -104 -298 -208 -54 -81 -66 -120 -79 -247
-8 -80 -6 -542 2 -580 3 -11 8 -54 12 -95 4 -41 9 -84 11 -95 2 -11 7 -40 10
-65 3 -25 11 -71 17 -103 l12 -59 3835 0 c2109 0 3889 1 3954 2 235 4 395 73
551 237 69 72 127 172 161 279 28 86 29 96 29 284 -1 177 -9 373 -19 425 -2
11 -7 52 -10 90 -7 71 -9 83 -21 165 -8 55 -14 89 -19 115 -2 11 -7 40 -11 65
-10 64 -28 152 -40 200 -1 3 -7 32 -14 65 -13 61 -58 227 -68 255 -3 8 -8 23
-9 32 -7 34 -112 336 -157 448 -78 200 -180 419 -282 605 -40 73 -183 313
-197 330 -5 6 -32 46 -60 90 -29 44 -57 85 -63 92 -5 6 -21 28 -35 48 -81 116
-290 371 -405 494 -140 149 -374 373 -452 434 -15 12 -35 28 -43 36 -8 8 -55
47 -105 86 -518 412 -1118 725 -1760 920 -212 65 -605 151 -765 169 -25 3 -61
7 -80 10 -62 9 -182 21 -310 32 -76 7 -627 13 -633 8z"/>
<path d="M5029 4182 c-164 -43 -299 -179 -344 -348 -14 -50 -16 -136 -16 -590
-1 -343 3 -545 10 -570 19 -70 74 -129 148 -160 33 -14 106 -16 563 -16 350 0
538 3 565 11 77 20 146 89 166 165 7 27 11 222 11 571 -1 575 -2 586 -58 697
-58 114 -198 219 -329 246 -29 7 -177 11 -350 11 -250 0 -311 -3 -366 -17z"/>
</g>
</svg>
